<svg xmlns="http://www.w3.org/2000/svg" viewBox="0 0 839.77 1038.93"><defs><style>.cls-1{fill:#808182;}.cls-1,.cls-10,.cls-100,.cls-101,.cls-102,.cls-103,.cls-104,.cls-105,.cls-106,.cls-107,.cls-108,.cls-109,.cls-11,.cls-110,.cls-111,.cls-112,.cls-113,.cls-114,.cls-115,.cls-116,.cls-117,.cls-118,.cls-119,.cls-12,.cls-120,.cls-121,.cls-122,.cls-123,.cls-124,.cls-125,.cls-126,.cls-127,.cls-128,.cls-129,.cls-13,.cls-130,.cls-131,.cls-132,.cls-133,.cls-134,.cls-135,.cls-136,.cls-137,.cls-138,.cls-139,.cls-14,.cls-140,.cls-141,.cls-142,.cls-143,.cls-144,.cls-145,.cls-146,.cls-147,.cls-148,.cls-149,.cls-15,.cls-150,.cls-151,.cls-152,.cls-153,.cls-154,.cls-155,.cls-156,.cls-157,.cls-158,.cls-159,.cls-16,.cls-160,.cls-161,.cls-162,.cls-163,.cls-164,.cls-165,.cls-166,.cls-167,.cls-168,.cls-169,.cls-17,.cls-170,.cls-171,.cls-172,.cls-173,.cls-174,.cls-175,.cls-176,.cls-177,.cls-178,.cls-179,.cls-18,.cls-180,.cls-181,.cls-182,.cls-183,.cls-184,.cls-185,.cls-186,.cls-187,.cls-188,.cls-189,.cls-19,.cls-190,.cls-191,.cls-192,.cls-193,.cls-194,.cls-195,.cls-196,.cls-197,.cls-198,.cls-199,.cls-2,.cls-20,.cls-200,.cls-201,.cls-202,.cls-203,.cls-204,.cls-205,.cls-206,.cls-207,.cls-208,.cls-209,.cls-21,.cls-210,.cls-211,.cls-212,.cls-213,.cls-214,.cls-215,.cls-216,.cls-217,.cls-218,.cls-219,.cls-22,.cls-220,.cls-221,.cls-222,.cls-223,.cls-224,.cls-225,.cls-226,.cls-227,.cls-228,.cls-229,.cls-23,.cls-230,.cls-231,.cls-232,.cls-233,.cls-234,.cls-235,.cls-236,.cls-237,.cls-238,.cls-239,.cls-24,.cls-240,.cls-241,.cls-242,.cls-243,.cls-244,.cls-245,.cls-246,.cls-247,.cls-248,.cls-249,.cls-25,.cls-250,.cls-251,.cls-252,.cls-253,.cls-254,.cls-26,.cls-27,.cls-28,.cls-29,.cls-3,.cls-30,.cls-31,.cls-32,.cls-33,.cls-34,.cls-35,.cls-36,.cls-37,.cls-38,.cls-39,.cls-4,.cls-40,.cls-41,.cls-42,.cls-43,.cls-44,.cls-45,.cls-46,.cls-47,.cls-48,.cls-49,.cls-5,.cls-50,.cls-51,.cls-52,.cls-53,.cls-54,.cls-55,.cls-56,.cls-57,.cls-58,.cls-59,.cls-6,.cls-60,.cls-61,.cls-62,.cls-63,.cls-64,.cls-65,.cls-66,.cls-67,.cls-68,.cls-69,.cls-7,.cls-70,.cls-71,.cls-72,.cls-73,.cls-74,.cls-75,.cls-76,.cls-77,.cls-78,.cls-79,.cls-8,.cls-80,.cls-81,.cls-82,.cls-83,.cls-84,.cls-85,.cls-86,.cls-87,.cls-88,.cls-89,.cls-9,.cls-90,.cls-91,.cls-92,.cls-93,.cls-94,.cls-95,.cls-96,.cls-97,.cls-98,.cls-99{stroke:#231f20;stroke-miterlimit:10;stroke-width:4px;}.cls-2{fill:#323232;}.cls-3{fill:#838383;}.cls-4{fill:#6c6c6c;}.cls-5{fill:#848485;}.cls-6{fill:#8f9090;}.cls-7{fill:#7f7f80;}.cls-8{fill:#686969;}.cls-9{fill:#888989;}.cls-10{fill:#717171;}.cls-11{fill:#202020;}.cls-12{fill:#6e6e6e;}.cls-13{fill:#6a6a6a;}.cls-14{fill:#616161;}.cls-15{fill:#6d6d6e;}.cls-16{fill:#696a6a;}.cls-17{fill:#616263;}.cls-18{fill:#7a7d7d;}.cls-19{fill:#303030;}.cls-20{fill:#161616;}.cls-21{fill:#373838;}.cls-22{fill:#171717;}.cls-23{fill:#4b4d4e;}.cls-24{fill:#535555;}.cls-25{fill:#4f5050;}.cls-26{fill:#2a2a2a;}.cls-27{fill:#8d8c8d;}.cls-28{fill:#303131;}.cls-29{fill:#737373;}.cls-30{fill:#646666;}.cls-31{fill:#676767;}.cls-32{fill:#5d5f5f;}.cls-33{fill:#3e3e3e;}.cls-34{fill:#4a4c4c;}.cls-35{fill:#747474;}.cls-36{fill:#5d5f60;}.cls-37{fill:#5e5e5e;}.cls-38{fill:#81959f;}.cls-39{fill:#4f6673;}.cls-40{fill:#607381;}.cls-41{fill:#6c7883;}.cls-42{fill:#7d8d96;}.cls-43{fill:#6b818d;}.cls-44{fill:#74848f;}.cls-45{fill:#455863;}.cls-46{fill:#4e565a;}.cls-47{fill:#717f85;}.cls-48{fill:#667179;}.cls-49{fill:#74838d;}.cls-50{fill:#8799a4;}.cls-51{fill:#6b8392;}.cls-52{fill:#344148;}.cls-53{fill:#8395a0;}.cls-54{fill:#8d9da7;}.cls-55{fill:#8ea0aa;}.cls-56{fill:#708088;}.cls-57{fill:#8499a5;}.cls-58{fill:#738591;}.cls-59{fill:#677379;}.cls-60{fill:#606a71;}.cls-61{fill:#6e7980;}.cls-62{fill:#7c8f9a;}.cls-63{fill:#6c808c;}.cls-64{fill:#6b787e;}.cls-65{fill:#839099;}.cls-66{fill:#616b6d;}.cls-67{fill:#6a7983;}.cls-68{fill:#677983;}.cls-69{fill:#7d8e9b;}.cls-70{fill:#7c8b94;}.cls-71{fill:#7a8a96;}.cls-72{fill:#4d5b61;}.cls-73{fill:#8fa2ae;}.cls-74{fill:#5f727e;}.cls-75{fill:#738690;}.cls-76{fill:#81929d;}.cls-77{fill:#61747e;}.cls-78{fill:#282e2e;}.cls-79{fill:#7f95a2;}.cls-80{fill:#788794;}.cls-81{fill:#82959e;}.cls-82{fill:#859ba7;}.cls-83{fill:#88959d;}.cls-84{fill:#5a6469;}.cls-85{fill:#8b9fab;}.cls-86{fill:#5d666d;}.cls-87{fill:#6d8795;}.cls-88{fill:#4e616d;}.cls-89{fill:#8da0ac;}.cls-90{fill:#859aa8;}.cls-91{fill:#677a86;}.cls-92{fill:#505355;}.cls-93{fill:#4a5f6c;}.cls-94{fill:#54666e;}.cls-95{fill:#65727b;}.cls-96{fill:#d0d0d0;}.cls-97{fill:#6f7a82;}.cls-98{fill:#83959d;}.cls-99{fill:#4c5a63;}.cls-100{fill:#5a5e65;}.cls-101{fill:#6d838c;}.cls-102{fill:#3f4d51;}.cls-103{fill:#232627;}.cls-104{fill:#718795;}.cls-105{fill:#738691;}.cls-106{fill:#788a95;}.cls-107{fill:#667882;}.cls-108{fill:#414f5a;}.cls-109{fill:#778184;}.cls-110{fill:#9a9c9d;}.cls-111{fill:#4e5e64;}.cls-112{fill:#657580;}.cls-113{fill:#62737c;}.cls-114{fill:#657a88;}.cls-115{fill:#7c8e99;}.cls-116{fill:#72848c;}.cls-117{fill:#58656f;}.cls-118{fill:#5b6a6f;}.cls-119{fill:#78858e;}.cls-120{fill:#6c7478;}.cls-121{fill:#5b666d;}.cls-122{fill:#4b6370;}.cls-123{fill:#5b6a7a;}.cls-124{fill:#6f8392;}.cls-125{fill:#43484a;}.cls-126{fill:#4b5355;}.cls-127{fill:#636b6d;}.cls-128{fill:#36464f;}.cls-129{fill:#6c828d;}.cls-130{fill:#2e383c;}.cls-131{fill:#687a84;}.cls-132{fill:#778a96;}.cls-133{fill:#2f3b3f;}.cls-134{fill:#50595b;}.cls-135{fill:#252a2d;}.cls-136{fill:#475258;}.cls-137{fill:#5b6d78;}.cls-138{fill:#788892;}.cls-139{fill:#898989;}.cls-140{fill:#7b7c7c;}.cls-141{fill:#7b7b7c;}.cls-142{fill:#3a3a3a;}.cls-143{fill:#292a2b;}.cls-144{fill:#606262;}.cls-145{fill:#4a4b4b;}.cls-146{fill:#454545;}.cls-147{fill:#707172;}.cls-148{fill:#515152;}.cls-149{fill:#3e4040;}.cls-150{fill:#5b5b5d;}.cls-151{fill:#676868;}.cls-152{fill:#5b5c5c;}.cls-153{fill:#868687;}.cls-154{fill:#767777;}.cls-155{fill:#7d7c7c;}.cls-156{fill:#757575;}.cls-157{fill:#505050;}.cls-158{fill:#6c6d6d;}.cls-159{fill:#777878;}.cls-160{fill:#5f6262;}.cls-161{fill:#555757;}.cls-162{fill:#626363;}.cls-163{fill:#505151;}.cls-164{fill:#434344;}.cls-165{fill:#606060;}.cls-166{fill:#f0efef;}.cls-167{fill:#646767;}.cls-168{fill:#343534;}.cls-169{fill:#484949;}.cls-170{fill:#353535;}.cls-171{fill:#515555;}.cls-172{fill:#444545;}.cls-173{fill:#4c4c4c;}.cls-174{fill:#545555;}.cls-175{fill:#494b4c;}.cls-176{fill:#5a5f62;}.cls-177{fill:#7e7f7f;}.cls-178{fill:#838484;}.cls-179{fill:#717373;}.cls-180{fill:#848584;}.cls-181{fill:#8c8e8e;}.cls-182{fill:#838483;}.cls-183{fill:#4f4f4f;}.cls-184{fill:#7d7d7e;}.cls-185{fill:#6b6b6c;}.cls-186{fill:#393939;}.cls-187{fill:#79797a;}.cls-188{fill:#616262;}.cls-189{fill:#808081;}.cls-190{fill:#787878;}.cls-191{fill:#7a7a7b;}.cls-192{fill:#7d7d80;}.cls-193{fill:#626261;}.cls-194{fill:#262626;}.cls-195{fill:#3f3f3f;}.cls-196{fill:#151616;}.cls-197{fill:#333;}.cls-198{fill:#878787;}.cls-199{fill:#474849;}.cls-200{fill:#525454;}.cls-201{fill:#292b2b;}.cls-202{fill:#555;}.cls-203{fill:#7b909b;}.cls-204{fill:#8e8f8f;}.cls-205{fill:#898c8c;}.cls-206{fill:#8b8b8e;}.cls-207{fill:#939495;}.cls-208{fill:#7e929d;}.cls-209{fill:#636463;}.cls-210{fill:#2d2e2e;}.cls-211{fill:#8a8a8b;}.cls-212{fill:#89b6ce;}.cls-213{fill:#3b3c3d;}.cls-214{fill:#bcc0c3;}.cls-215{fill:#4b4c4d;}.cls-216{fill:#959698;}.cls-217{fill:#68767e;}.cls-218{fill:#616565;}.cls-219{fill:#4b4b4c;}.cls-220{fill:#586470;}.cls-221{fill:#727272;}.cls-222{fill:#666769;}.cls-223{fill:#626263;}.cls-224{fill:#5e5e61;}.cls-225{fill:#67676a;}.cls-226{fill:#3d4446;}.cls-227{fill:#5d5e5e;}.cls-228{fill:#6a6b6b;}.cls-229{fill:#535353;}.cls-230{fill:#a8d6f3;}.cls-231{fill:#72797d;}.cls-232{fill:#2d383d;}.cls-233{fill:#666768;}.cls-234{fill:#7b7e7d;}.cls-235{fill:#2a2b2b;}.cls-236{fill:#5e5f5f;}.cls-237{fill:#474748;}.cls-238{fill:#6e6f70;}.cls-239{fill:#535454;}.cls-240{fill:#1d1d1d;}.cls-241{fill:#404142;}.cls-242{fill:#676a6a;}.cls-243{fill:#626262;}.cls-244{fill:#363636;}.cls-245{fill:#626565;}.cls-246{fill:#666868;}.cls-247{fill:#424242;}.cls-248{fill:#555656;}.cls-249{fill:#3a3a3c;}.cls-250{fill:#525555;}.cls-251{fill:#2e2d2d;}.cls-252{fill:#5c5c5c;}.cls-253{fill:#434343;}.cls-254{fill:#fff;}</style></defs><g id="Layer_2" data-name="Layer 2"><g id="Layer_1-2" data-name="Layer 1"><path class="cls-1" d="M828.92,965.82c0-5.75,0-11.5,0-17.25s0-11.38,0-17.07c-.4-9.77.92-19.58-.8-29.32-.9-9.09-.34-18.2-.41-27.29q-.15-20.86,0-41.72c0-2.47-.7-5.45,2.57-6.79,1,1.72.48,3.59.49,5.39,0,19.19,0,38.38.13,57.57.23.65,1.12-.3.55,0-.24.14-.4.06-.42-.26-.48-5.61-.17-11.23-.19-16.84-.06-13.64.13-27.29-.09-40.93-.11-6.28-1.28-12.54-.82-18.85.13-1.85-.51-4.18,2.21-4.91.14,31.24.16,62.48-.48,93.72-.48,23.6-.29,47.21-.33,70.81"/><path class="cls-2" d="M829.2,1035.55a10.13,10.13,0,0,1-.9-1.65,15.08,15.08,0,0,1-.41-1.86c-.32-20.32-.1-40.64-.13-60.95a10.24,10.24,0,0,1,.85-4.88,1.29,1.29,0,0,1,1.58-.71"/><path class="cls-3" d="M829.23,1034.52l0,1c-2.15-.1-4.31-.29-6.47-.29q-142.08-.08-284.17-.16c-1.92,0-4,.74-5.76-.74,2.44-2.09,5.39-1.33,8.14-1.34q77.73-.07,155.47,0,62.61.06,125.22,0C824.23,1033,827,1032.38,829.23,1034.52Z"/><path class="cls-4" d="M696.56,1034.17l-108.34.16q-27.71,0-55.42,0l-.12-1a4.73,4.73,0,0,1,2.66-1.24c24.3-.34,48.61-.1,72.91-.14q40.2-.07,80.4,0c2.32,0,4.67-.29,6.92.6A1.65,1.65,0,0,1,696.56,1034.17Z"/><path class="cls-5" d="M389.85,772.76c-6.12.46-12.22,1.13-18.34,1.33-16.61.56-33.22.91-49.82,1.35-2-.77-4-.19-6-.37-1.32-.09-2.66.21-3.95-.33a1.31,1.31,0,0,1,.17-1.54,4.42,4.42,0,0,1,1.53-.77c5.16-.77,10.45.53,15.56-1a40,40,0,0,1,11.71,0c5.7,1.42,11.5.42,17.25.71a33.71,33.71,0,0,1,5.41.27c1.53,1,3.39.44,4,.57a8.76,8.76,0,0,1-2.33-.08.9.9,0,0,1-.34-1.3c2.92-2.31,6.25-1.33,9.45-1.1,2.44.18,4.89.42,7.34.61C384.3,771.59,387.45,770.21,389.85,772.76Z"/><path class="cls-6" d="M398.54,903.55a4,4,0,0,1-.55-1.36q-.6-34.34-1.12-68.67c2.26.44,2.37,2.38,2,3.82-1,3.64-.27,7.34-.74,11,.49-3-.52-6.08.73-9,2.49.75,2.27,2.93,2.36,4.79a50.21,50.21,0,0,1-.29,10.68,19.84,19.84,0,0,0-.78,6.94c0,2.37,0,4.74,0,7.12,0,6.38,0,12.76,0,19.14-.25,4.72.42,9.48-.46,14.19A2.82,2.82,0,0,1,398.54,903.55Z"/><path class="cls-7" d="M511.84,901.66c-7.41,1.21-14.9.73-22.34.65-14.62-.16-29.19,1.69-43.81,1,.74-2.68,3-1.86,4.85-2.18s3.87.84,5.45-.9c4.27-2.16,8.73-1.1,13.15-.83a16.69,16.69,0,0,0,5.75.69l5.15,0q6.22,0,12.44,0,4,0,8,0c2.71,0,5.41,0,8.11.08A3.85,3.85,0,0,1,511.84,901.66Z"/><path class="cls-8" d="M531.64,930.36c-2.65-.15-2-2.18-2-3.7-.08-6.64-.07-13.28-.13-19.92,0-1.8.32-3.68-.88-5.3a.81.81,0,0,1-.25-.8c.08-.27.16-.4.24-.4,1.32-.63,2.68-1.74,3.81.29,1.42,9.13.65,18.28.47,27.44A3.78,3.78,0,0,1,531.64,930.36Z"/><path class="cls-9" d="M396.62,796.68c-1.37-4.33-.84-8.77-.77-13.19.75-1.75.21-3.59.38-5.39,0-1.94,0-3.88,0-5.82a.92.92,0,0,1,1.3-.74,2.37,2.37,0,0,1,1.12,1.56c.74,9.92,2.85,19.81.79,29.79a1.67,1.67,0,0,1-1.17,1c-2.18-2.16-.62-4.9-1.08-7.32-.07-.38.07-.77-.06-1.14A1.56,1.56,0,0,1,396.62,796.68Z"/><path class="cls-10" d="M311.75,773.74l.09.74c-2.41,1.24-5,.28-7.47.59-1.85.26-3.83-.59-5.6.55a37,37,0,0,1-13.09.75c-2.08-.63-4.22-.16-6.32-.31-.95-.26-2.41.65-2.68-1.17,1.48-2.12,3.75-1.58,5.8-1.7,4.52-.27,9.11.57,13.58-.78C301.33,772.32,306.76,770.54,311.75,773.74Z"/><path class="cls-11" d="M532.72,1016.42q0-23.48-.05-46.95a1.15,1.15,0,0,1,1.59.55c1,1.82.93,3.83.93,5.8,0,11.88.09,23.76,0,35.64a11.78,11.78,0,0,1-.92,4.46A1.1,1.1,0,0,1,532.72,1016.42Z"/><path class="cls-12" d="M398.84,839.39v9.88c-1.91-5.17,0-10.64-2-15.75q0-6.51,0-13c.47-.89.2-1.9.44-2.81.43-1.68,1.22-1.66,2.18-.35C400.44,824.72,401.52,832.11,398.84,839.39Z"/><path class="cls-13" d="M439.64,903.34l-22.81.28a13,13,0,0,1-6.05.13,1.23,1.23,0,0,1,.07-1.6c3.27-1.86,6.84-.71,10.27-1a16.17,16.17,0,0,0,5.74-.61,19.2,19.2,0,0,1,7.44,0C436,901.51,438.93,900.39,439.64,903.34Z"/><path class="cls-14" d="M398.55,816.53l-1.67,4q-.13-11.91-.26-23.81c.16-1.25.33-2.5.49-3.75h.62v10.6c2,2.11.92,4.93,1.71,7.31C399.7,812.82,400,814.82,398.55,816.53Z"/><path class="cls-15" d="M439.64,903.34c-1.3-1.63-3.67-.07-5-1.68,6.9-3,13.84-2.56,20.81-.27-1.85,1.07-1.85,1-4.2,1.11-1.88.11-3.91-.59-5.6.83Z"/><path class="cls-16" d="M265.71,731.78c.34-1.08,0-2.42,1.16-3.19,3.16.88,2.17,3.6,2.41,5.67a18.38,18.38,0,0,1-.35,5.86c-.63,1.63-.64,3.57-2.29,4.71C265.48,740.54,265.82,736.14,265.71,731.78Z"/><path class="cls-17" d="M531.64,930.36c0-.69,0-1.38,0-2.08,2.67-.65,2.92,1.4,3.21,3.09a22.14,22.14,0,0,1-.15,7.7c-1,2.14-.2,4.9-2.29,6.65C531.31,940.65,532.28,935.46,531.64,930.36Z"/><path class="cls-18" d="M528.57,900.54a3.41,3.41,0,0,1,.06.9l-14,.09c-2-1.17-4.23-.21-6.32-.6a.9.9,0,0,1-.81-1.19c3.86-3,8.22-1.45,12.41-1.36a20,20,0,0,0,5.7.83A3.86,3.86,0,0,1,528.57,900.54Z"/><path class="cls-19" d="M532.72,1016.42a2.6,2.6,0,0,1,.56,0c2.58,2,1.5,4.78,1.67,7.27s0,4.92.13,7.38l.06.84a2.39,2.39,0,0,1-.61,1.52l-1.85,0Q532.71,1024.89,532.72,1016.42Z"/><path class="cls-20" d="M266.9,762.58l-.06-16a1.1,1.1,0,0,1,1.54.4,27.39,27.39,0,0,1,.05,15.1A1.1,1.1,0,0,1,266.9,762.58Z"/><path class="cls-21" d="M533.57,969.46h-.9q0-8-.08-16a1.15,1.15,0,0,1,1.6.47C535.44,959.17,536.28,964.39,533.57,969.46Z"/><path class="cls-22" d="M396.69,771.59a2.53,2.53,0,0,1,0,.95c-.3.58-.71.67-1.23.25l-5.59,0-9-.19a1.5,1.5,0,0,1,1.22-1.82C387,769.88,392,768.82,396.69,771.59Z"/><path class="cls-23" d="M533.56,953.48h-1c-.05-2.58-.1-5.17-.14-7.75.78-2-.48-4.37,1.1-6.23A14,14,0,0,1,533.56,953.48Z"/><path class="cls-24" d="M267.88,776.44c-2.28-1.64-.88-3.88-1-5.89a1.52,1.52,0,0,1,1.24-.41c1.78.76,1.75,2.49,2.16,4a3,3,0,0,1-.14,1.3C269.63,776.27,268.54,775.87,267.88,776.44Z"/><path class="cls-25" d="M303.88,774.74l8-.25,3.89.16c.36.16.48.33.37.5s-.23.26-.35.26l-11.94.06c-.35-.2-.46-.38-.32-.53A.55.55,0,0,1,303.88,774.74Z"/><path class="cls-26" d="M267.88,776.44l2.11-1a5.25,5.25,0,0,1,6.69,0l3,.46.11.56Z"/><path class="cls-3" d="M410.88,902.68a2.63,2.63,0,0,0,0,.69c-1.14,1.3-2.91,0-4.13,1l-2.08,0c-.74-.93-3.67.59-2.61-2.35a5.82,5.82,0,0,1,3.2-.87C407.22,901.26,409.38,900.75,410.88,902.68Z"/><path class="cls-27" d="M406.72,904.38c1.14-1.32,2.75-.69,4.13-1l6,.25C413.54,904.91,410.11,904.39,406.72,904.38Z"/><path class="cls-28" d="M267.92,770.56h-1c0-2.66,0-5.31,0-8h.9A6.2,6.2,0,0,1,267.92,770.56Z"/><path class="cls-29" d="M401.72,902.44l2.92,1.92c-2.06-.07-4.28,1.1-6.1-.81a1.33,1.33,0,0,0,.55-.15,3.28,3.28,0,0,1,1.43-1.23A1.59,1.59,0,0,1,401.72,902.44Z"/><path class="cls-30" d="M508.5,900.82c2.08-.06,4.26-1,6.14.71l-2.8.13-3.33-.46Z"/><path class="cls-31" d="M315.75,775.41c0-.25,0-.51,0-.76,2,.11,4.15-.82,6,.79Z"/><path class="cls-32" d="M395.44,772.79l1.23-.25c0,2,0,4,0,6-.23.52-.49.53-.77,0Z"/><path class="cls-33" d="M267.74,746.61h-.9c-.07-.6-.14-1.19-.2-1.78.7-1.31-.12-3,1.11-4.2C269.49,742.63,269.5,744.62,267.74,746.61Z"/><path class="cls-34" d="M279.78,776.46c0-.19-.08-.38-.11-.56,2-.11,4.08-.7,6,.47Z"/><path class="cls-35" d="M395.86,778.54a4,4,0,0,0,.77,0c-.07,1.7.69,3.51-.78,5C395.86,781.84,395.86,780.19,395.86,778.54Z"/><path class="cls-36" d="M303.88,774.74a2.55,2.55,0,0,0-.07.73l-5,.15C300.25,774,302.14,774.8,303.88,774.74Z"/><path class="cls-37" d="M567.43,6.17l-79.7-.27c.67-2.56,2.72-1.17,4.08-1.26,5.93-.35,11.89.37,17.82-.42l18,0c13,.43,26,.82,39-.2.31-.1.62-.21.92-.33l1.26,1.09C569.13,6.05,568.51,6.34,567.43,6.17Z"/><path class="cls-38" d="M743.43,396.8c-.95-3.2-4.79-4.29-8-2.33-1.37.84-2.18,3.8-4.32,1.88-1.81-1.62-4.42-3.27-3.15-6.54.16,0,.42,0,.46.13,1.79,4.36,4.53,4.65,8,1.9a7.88,7.88,0,0,0,6,0c3.26.77,4.21,2.31,1.69,5Z"/><path class="cls-39" d="M730.45,436.74c-3-2.33-1.86-5.63-1.93-8.61s0-6.19.07-9.29a1,1,0,0,1,1.65,0Z"/><path class="cls-40" d="M720.68,366.74c-5-3.94-7.67-8.84-6.22-15.39.6,1.35,1.61,2.67,1.72,4.06a12.63,12.63,0,0,0,5.26,9.49,1.23,1.23,0,0,1,.51,1C721.75,366.53,721.43,367,720.68,366.74Z"/><path class="cls-41" d="M827.47,662.69c1.24-1,2.4-2.05,2.07-4-.6-3.43.29-6.75,1-10.06.88-.26,1.31.25,1.65.94.5,3.57-1.72,6.93-.44,10.74.65,1.92-2.18,1.82-3.64,2.29Z"/><path class="cls-42" d="M720.68,366.74l.78-1c1.12-.31,1.73.22,2,1.24-4.5,5.2-4.51,7.83,0,14.87.33,1.05-.15,1.26-1.06,1a13.71,13.71,0,0,1-3.87-6,8.69,8.69,0,0,0,0-5.95C717.77,368.72,720.31,368.3,720.68,366.74Z"/><path class="cls-43" d="M713.41,349.39c-3.4-5.87-.67-12.73-3-18.78,3.16,1.14,2.79,3.88,2.89,6.4a10.23,10.23,0,0,0,0,5.7C712.65,345,716.05,347.11,713.41,349.39Z"/><path class="cls-44" d="M785.41,577.26c-1.38-1.35-2.74-2.71-4.14-4-.88-.82-1.28-1.69-3.09-.59-2.92,1.79-3.55,1-3-3.1,2.14,1.1,2.37-2.17,4.17-1.83C780.39,571.52,785.21,572.93,785.41,577.26Z"/><path class="cls-45" d="M684.63,249c-.1-4.68.4-9.41-1-14,2.69,2.57,4.12,11.13,2.33,14.39A6.21,6.21,0,0,1,684.63,249Z"/><path class="cls-46" d="M709.45,328.84c-1-.53-.78-2.34-2.72-2.17-2.78.25-1.27-1.72-1.11-2.92-1.28-1.08-.64-2.31-.29-3.52.66-1.11,1.22-2.46,2.91-1.32C708.59,322.22,710.32,325.37,709.45,328.84Z"/><path class="cls-47" d="M666.7,157c-.33-4.35,2.32-8.74-.15-13.07,4.57,1,2.48,4.72,2.78,7.27.22,1.87-.61,3.86-1,5.8A1,1,0,0,1,666.7,157Z"/><path class="cls-48" d="M741.35,479.91c-5.26-3.85-6-6.12-3.92-12.17a.75.75,0,0,1,.15-1.27c1.23,4.1-.05,9,4,12.17A.84.84,0,0,1,741.35,479.91Z"/><path class="cls-49" d="M771.42,542.24c-4.95-3.19-3-8.15-3.22-12.55C772.17,533.13,769.39,538.3,771.42,542.24Z"/><path class="cls-50" d="M775.4,562.25c-2.58,0-3-1.88-2.89-3.72a16.73,16.73,0,0,0-1.17-6.29c3.8-.19,3.34,2.94,3.83,5.14A28,28,0,0,1,775.4,562.25Z"/><path class="cls-51" d="M811.53,599.61c-1-1.78-2.19-2-4-.91s-3.47,1.94-5.19,0a.7.7,0,0,1-.2-.78q.15-.36.3-.36c1.43.15,3,.7,4.13-.61,3.16-3.69,4.49-.79,6,1.58C812.85,599.47,812.38,599.73,811.53,599.61Z"/><path class="cls-52" d="M749.25,398.81c-.47,4.47-3.92,1.14-5.7,2.18-1,.37-1.79-.21-2.68-.4a19.25,19.25,0,0,1-4.51-1.72h0c2.3-3.23,5.33-1.1,8.08-1.1l0,0C745.86,399.07,747.84,397.63,749.25,398.81Z"/><path class="cls-53" d="M741.35,479.91c.09-.42.19-.85.28-1.27q1.39,5.82,2.8,11.63C740,487.82,741,483.76,741.35,479.91Z"/><path class="cls-54" d="M635.31,104.21a19.21,19.21,0,0,1-7.86-7.46,16.65,16.65,0,0,1,8.06,6.44c.27.28.33.53.18.74S635.43,104.21,635.31,104.21Z"/><path class="cls-55" d="M701.51,284.69c-2.28-2.23-6.54-3.16-5.09-7.82l5.05,5.85A1.35,1.35,0,0,1,701.51,284.69Z"/><path class="cls-56" d="M819.31,612.68c-3-.63-6.48-.27-7.9-4C814.11,609.88,817.9,608.93,819.31,612.68Z"/><path class="cls-57" d="M664.5,142.47q-1.9-3.81-3.83-7.6a.55.55,0,0,1,.63-.61C664.28,136.25,666,138.74,664.5,142.47Z"/><path class="cls-58" d="M748.43,502.26q-1.48-4.78-3-9.57C749.92,494.8,749.53,498.42,748.43,502.26Z"/><path class="cls-59" d="M830.54,674.65c.15-1.33-2.89-1.45-1.27-3.34,1.48.71,2.31,2.73,4.72,1.49,1.68-.87,3.18.24,3.39,2.37-1.75-1.06-3.29-.57-4.74.66A2.4,2.4,0,0,1,830.54,674.65Z"/><path class="cls-60" d="M669.47,176.08c-2.06-2.49-4.07-5-3-8.58C668.73,169.92,669.1,173,669.47,176.08Z"/><path class="cls-61" d="M669.8,189.08c-2-4.18-2.65-8.39-.32-12.68C669.4,180.63,670.82,184.82,669.8,189.08Z"/><path class="cls-62" d="M576.58,19.49c-3.31-1.77-3.94-5.22-5.21-8.27a.67.67,0,0,1,1.12-.2C574.38,13.59,576.63,16,576.58,19.49Z"/><path class="cls-63" d="M690.49,265.86c-1.93-3.39,0-7.69-2.55-10.92,3.28-1.2,2.33,2,3.28,3.17C690.41,260.64,691.63,263.36,690.49,265.86Z"/><path class="cls-64" d="M700.43,298.07l-.8-2c.48-.88,1.32-.94,2.17-1s1.91.44,2.81-.21a4.09,4.09,0,0,1,1.06-.49,1.38,1.38,0,0,1,1.05.39l1.73,0a.77.77,0,0,1,.14,1.25C706.17,298,703.35,298.24,700.43,298.07Z"/><path class="cls-65" d="M672.45,198.47c-1.75-2.77-3.22-5.61-2-9.05C671,192.46,675,194.75,672.45,198.47Z"/><path class="cls-66" d="M677.48,214.92q-1.54-4-3.07-8a.78.78,0,0,1,1.15-.06C676.75,209.43,679.11,211.7,677.48,214.92Z"/><path class="cls-67" d="M830.52,646.65c.8-4-1.91-6-4.59-8,2.57,0,5,.36,6.22,3.11C831,643.21,833.18,645.73,830.52,646.65Z"/><path class="cls-68" d="M710,292.81a12.69,12.69,0,0,0,.44-5.9,2.13,2.13,0,0,1,1-1.86,7,7,0,0,1,0,7.83A1,1,0,0,1,710,292.81Z"/><path class="cls-69" d="M611.56,77.57c-3.35.26-4.48-1.86-5-4.65-.38-.9,0-1.07.82-.88C608.65,74,610.81,75.24,611.56,77.57Z"/><path class="cls-70" d="M617.52,86.07c-2.95-1.77-4.65-4.54-6-7.57A9.92,9.92,0,0,1,617.52,86.07Z"/><path class="cls-71" d="M761.36,522.86a13.31,13.31,0,0,1-3-6.63c2.91.17,2.89,2.78,3.81,4.6C761.72,521.43,762.2,522.41,761.36,522.86Z"/><path class="cls-72" d="M779.37,567.71c-1.7-.1-.9,5.5-4.17,1.83l3.1-3.85c.74-.58,1.55-2.35,2.13.12C780.08,566.44,779.72,567.07,779.37,567.71Z"/><path class="cls-73" d="M626.72,96.09a9.2,9.2,0,0,1-4.94-5.23.72.72,0,0,1,.61-.66C625.08,91.25,626.14,93.49,626.72,96.09Z"/><path class="cls-74" d="M572.49,11l-1.12.2c-1.31-1.69-2.63-3.37-3.94-5.05l1.32-1.37C569.9,6.94,571.92,8.55,572.49,11Z"/><path class="cls-75" d="M730.24,418.88l-1.65,0c-.71-2.49-.43-4.67,1.94-6.19C731.94,414.8,729.75,416.78,730.24,418.88Z"/><path class="cls-76" d="M703.52,312.77c-1.71-2.36-2.1-5.16-2.61-7.91,2.07,1.55,3.58,3.41,3.31,6.21C704.09,311.68,704.09,312.34,703.52,312.77Z"/><path class="cls-77" d="M603.54,66.46c-2.31-1.55-3.13-4-4.06-6.45C603.06,60.76,603.16,63.69,603.54,66.46Z"/><path class="cls-78" d="M825.35,638.64c-2.41-3.83-.39-8-.9-12,.3-.47.59-.44.88,0Z"/><path class="cls-79" d="M770.42,545.66c.19-1.12,1.75-1.55,1.46-2.9,1-1.7,2.42-1.59,2.88,0,.53,1.85-.72,3.06-2.82,3C771.4,546.36,770.89,546.34,770.42,545.66Z"/><path class="cls-80" d="M758.43,515.3c-3.71-.83-3.83-3.6-3.56-6.58C757.17,510.31,757.49,513,758.43,515.3Z"/><path class="cls-81" d="M593.69,51.51C591.24,50,590.29,47.73,590,45c3,1.15,3.64,3.66,3.66,6.5Z"/><path class="cls-82" d="M722.39,382.86l1.06-1c1.89,2,4,3.87,3.5,7Z"/><path class="cls-83" d="M648,113.05a7.32,7.32,0,0,1-6-4C644.82,109.09,647,110.21,648,113.05Z"/><path class="cls-84" d="M736.58,455.67c.08.42.17.84.25,1.26-.31,1.18-.12,2.57-1.48,3.27l-1.08-2.3c-.33-1.41-.82-2.84.24-4.17a1.57,1.57,0,0,1,2,.54A1.54,1.54,0,0,1,736.58,455.67Z"/><path class="cls-85" d="M797.36,595.23c-2.32-.87-3.31-2.83-4-5C796.9,590.1,797.25,592.57,797.36,595.23Z"/><path class="cls-86" d="M666.7,157h1.65c.53,2.2-1.09,3.62-1.92,5.33C664.25,160.44,666.73,158.78,666.7,157Z"/><path class="cls-87" d="M696.51,277c-3.32-1-1.44-4.16-2.59-6.07C698.28,271.41,695.11,275.16,696.51,277Z"/><path class="cls-88" d="M580.58,29.62a10.09,10.09,0,0,1-3-5.52C580.58,24.88,580.72,27.18,580.58,29.62Z"/><path class="cls-89" d="M824.34,617.22a10,10,0,0,1-4.43-4.52C823.4,612.23,824.34,614.26,824.34,617.22Z"/><path class="cls-90" d="M811.53,599.61l1.08-1.09c1.12,1,2.18,1.94,1.43,3.61a1.7,1.7,0,0,1-2.71.82C811.4,601.84,811.47,600.73,811.53,599.61Z"/><path class="cls-91" d="M741.45,399.68l2.1,1.31a8.34,8.34,0,0,1-5,.85.75.75,0,0,1-1.28-.09l.36-1.05C738.53,399,739.93,399.12,741.45,399.68Z"/><path class="cls-92" d="M744.45,397.77c-2.68.48-5.62-1-8.08,1.1-1.49-1.27-.81-1.87.71-2,2.11-.12,4.23-.08,6.35-.11a.44.44,0,0,0,.66.08A1,1,0,0,1,744.45,397.77Z"/><path class="cls-93" d="M830.52,646.65c1.57-1.28,0-3.61,1.63-4.87,0,2.61,0,5.21.05,7.82l-1.65-.94Z"/><path class="cls-94" d="M793.4,590.25c-2.58-.78-2.27-2.66-1.75-4.61a1.17,1.17,0,0,1,1.52-.93C793.25,586.56,793.32,588.4,793.4,590.25Z"/><path class="cls-95" d="M682.68,223a11.06,11.06,0,0,1-4.29-6.52C680.52,218.18,683,219.67,682.68,223Z"/><path class="cls-96" d="M733,435.81c.51,1,1.47,1.07,2.4,1.2-.63.81-2,1-1.91,2.42a1,1,0,0,1-1.62.4c-.49-1-1-2-1.46-3Z"/><path class="cls-97" d="M583.76,36c-.3-2.55-3.38-3.68-3.25-6.45C582,31.49,586.41,31.93,583.76,36Z"/><path class="cls-98" d="M766.46,529.06c-2.55-.35-3.11-2.45-3.87-4.38.33-.38.66-.39,1,0C765.85,525.28,766.43,527,766.46,529.06Z"/><path class="cls-99" d="M793.17,584.71l-1.52.93c-.79-1.4-1.66-2.7-3.41-3C790.79,581.17,792.63,581.39,793.17,584.71Z"/><path class="cls-100" d="M802.48,597.55c0,.38-.07.76-.1,1.14a4.85,4.85,0,0,1-4.56-3A7.5,7.5,0,0,1,802.48,597.55Z"/><path class="cls-101" d="M599.56,60.09A6,6,0,0,1,595.91,56c.06-.53.07-1.1.79-1.2A9.25,9.25,0,0,1,599.56,60.09Z"/><path class="cls-102" d="M780.43,565.81c-.65-1.21-1.41-.22-2.13-.12l-1.1-2c1.12-.09,2.24-.26,3.35-.25.72,0,1.92-.28,1.91.83S781.55,565.91,780.43,565.81Z"/><path class="cls-103" d="M825.33,626.67h-.88l-.15-9.06C826.77,620.39,825.18,623.63,825.33,626.67Z"/><path class="cls-104" d="M607.39,72l-.82.89c-2.3-1.36-2-3.8-2.5-5.93C606.09,68.07,606.69,70.09,607.39,72Z"/><path class="cls-105" d="M622.39,90.2a1.93,1.93,0,0,1-.61.66c-1.63-1.44-3.44-2.72-4.3-4.84C620.42,85.88,621.17,88.32,622.39,90.2Z"/><path class="cls-106" d="M753.42,507.31a7.47,7.47,0,0,1-4.28-3.64C752.66,502.42,753.2,504.68,753.42,507.31Z"/><path class="cls-107" d="M701.51,284.69c0-.66,0-1.32,0-2,2.34.52,3.46,2.31,4.43,4.26Z"/><path class="cls-108" d="M690.49,265.86c.29-2.58-.56-5.26.73-7.75a25.82,25.82,0,0,1,0,7.8l-.66-.06Z"/><path class="cls-109" d="M596.7,54.75l-.79,1.2a9.78,9.78,0,0,1-2.22-4.44l0,0C595.71,51.63,596.19,53.2,596.7,54.75Z"/><path class="cls-110" d="M708.24,318.91c-1.41-.11-1.69.81-1.77,1.92-1.35.48-1.54-.57-1.88-1.42a4.17,4.17,0,0,1,.18-2.1,1.94,1.94,0,0,1,1.6-1.2C707.63,316.61,708,317.75,708.24,318.91Z"/><path class="cls-111" d="M770.42,545.66l1.52.07c-1.06,2.07-.08,4.32-.54,6.44C769.49,550.24,769.55,548,770.42,545.66Z"/><path class="cls-112" d="M706.37,316.11a5.2,5.2,0,0,1-.61.63c-2.7,0-1.11-2.82-2.41-3.75l.17-.22c.24-.57.47-1.13.7-1.7C705.57,312.49,705.69,314.42,706.37,316.11Z"/><path class="cls-113" d="M737.58,466.47l-.15,1.27c-2.9-1.35-2.56-3.3-1-5.47C736.82,463.67,737.2,465.07,737.58,466.47Z"/><path class="cls-114" d="M661.3,134.26a2.61,2.61,0,0,1-.63.61c-1.26-1.08-2.57-2.13-3-3.87.51-.63,1.06-.52,1.63-.07Z"/><path class="cls-115" d="M675.56,206.88l-1.15.06a2.54,2.54,0,0,1-.82-3.09c.33-.33.39-.95,1-1C675.73,204,675.59,205.46,675.56,206.88Z"/><path class="cls-116" d="M587.35,42.14c-.7-1.06-1.4-2.12-2.09-3.18,3.24-1.41,2.5,1.87,3.57,3A1.06,1.06,0,0,1,587.35,42.14Z"/><path class="cls-117" d="M827.47,662.69a1,1,0,0,0,.65-.06c.08,1.36.17,2.72.25,4.08C826.16,665.8,826.09,664.41,827.47,662.69Z"/><path class="cls-118" d="M735.2,408.91c.09-1.37.19-2.73.28-4.1.32-.46.65-.46,1,0a8.07,8.07,0,0,1,.07,4.91c-.09.32-.18,1.22-.87.55C735.34,410,735.34,409.38,735.2,408.91Z"/><path class="cls-119" d="M642,109.05a7,7,0,0,1-4.8-2.91.93.93,0,0,1,1.51-.2C640.64,106.14,641.56,107.37,642,109.05Z"/><path class="cls-120" d="M655.48,117.26c-1.88-.31-3.72-.69-5-2.32C652.33,115.34,655,114.05,655.48,117.26Z"/><path class="cls-121" d="M659.32,130.93l-1.63.07a4.53,4.53,0,0,1-1.17-4c.37-.46.74-.43,1.1,0Z"/><path class="cls-122" d="M711.42,285.05a1.83,1.83,0,0,1-1,1.86l-2.16,0C708.81,285.47,709.57,284.35,711.42,285.05Z"/><path class="cls-123" d="M690.59,265.85a.84.84,0,0,1,.66.06c1.54.93,2,2.44,2.2,4.08A6.5,6.5,0,0,1,690.59,265.85Z"/><path class="cls-124" d="M763.56,524.71l-.49,0h-.49a2,2,0,0,1-1.22-1.82l.81-2C762.64,522.12,763.1,523.42,763.56,524.71Z"/><path class="cls-125" d="M683.46,234.19a6.09,6.09,0,0,1-.67-6.23l.4-.06C684.19,230,683.46,232.09,683.46,234.19Z"/><path class="cls-126" d="M683.19,227.9l-.4.06c.21-1.4.42-2.8.64-4.2C686.4,225.32,685,226.62,683.19,227.9Z"/><path class="cls-127" d="M786.43,580.8c-1.16-.87-1.15-2.13-1.13-3.39C787.32,578,787.77,579.09,786.43,580.8Z"/><path class="cls-128" d="M713.28,342.71a4.82,4.82,0,0,1,0-5.7C713.27,338.91,713.28,340.81,713.28,342.71Z"/><path class="cls-129" d="M828.3,670.18v-3.53c1.12,0,2.06.31,2,1.6S829.24,669.8,828.3,670.18Z"/><path class="cls-130" d="M742.4,391.85a4.79,4.79,0,0,1-6,0Z"/><path class="cls-131" d="M638.75,105.94l-1.51.2-1.93-1.93c.07-.34.13-.68.2-1A6.08,6.08,0,0,1,638.75,105.94Z"/><path class="cls-132" d="M710,292.81l1.46.07a6.42,6.42,0,0,1-2.85,3.19c-.05-.41-.1-.83-.14-1.25Z"/><path class="cls-133" d="M674.61,202.87l-1,1c-.23-1.64-.45-3.28-.67-4.92C675.41,199.42,674.38,201.42,674.61,202.87Z"/><path class="cls-134" d="M736.45,404.81h-1c-.31-1.55-.56-3.06,1.78-3.06l1.28.09A3.56,3.56,0,0,0,736.45,404.81Z"/><path class="cls-92" d="M749.25,398.81c-1.6-.3-3.5.77-4.78-1C746,398.4,747.94,397.13,749.25,398.81Z"/><path class="cls-135" d="M723.5,367l-2-1.24a1.47,1.47,0,0,0,0-.83C722.9,364.83,725.1,364,723.5,367Z"/><path class="cls-136" d="M700.47,304.45l-1.11-.63c-.41-1.61-.93-3.23.29-4.74a.81.81,0,0,0,.78-.31C700.45,300.66,700.46,302.55,700.47,304.45Z"/><path class="cls-137" d="M657.62,127h-1.1c-.31-1.94-1.16-4,1-5.46Z"/><path class="cls-138" d="M587.35,42.14l1.48-.16c1.22.76.64,2.14,1.08,3.16C588.29,44.8,587.87,43.42,587.35,42.14Z"/><path class="cls-139" d="M463.64,5.9c-26.12.44-52.24-.45-78.36-.58q-86.38-.41-172.77-.58c-2,0-3.95-.31-5.92-.48a2.56,2.56,0,0,1,1.51-1c5.61-.36,11.21-.08,16.82-.17,5.35-.08,10.66.86,16,.51H382.42c8.06-.21,16.14.44,24.19-.35,17.78-.09,35.57-.54,53.33.66-.94,1-2.17.65-3.29.65q-18.7,0-37.4,0c-.86,0-1.87.4-2.12,0,.93.34,2.48,0,3.95,0,12.8,0,25.6,0,38.39.08C460.86,4.65,462.88,3.46,463.64,5.9Z"/><path class="cls-140" d="M208.21,3.8l-1.62.46Q161.14,4,115.7,3.71a8,8,0,0,1-1.91-.48c5.3-1.47,10.71-.24,16-.65h43.8c4.06-.26,8.17.55,12.21-.44,15.4-.09,30.82-.52,46.2.78-2.24,1.34-4.69.33-7,.63C219.42,3.71,213.81,3.24,208.21,3.8Z"/><path class="cls-141" d="M463.64,5.9c-1.58-1.36-3.49-.79-5.26-.8C445.78,5,433.17,5,420.56,5c-1.59,0-3.25.46-6-1.08h45.37l49.69.33c-5.32,1.7-10.8.37-16.18.87-1.91.17-4-.69-5.72.81Z"/><path class="cls-142" d="M305.76,3.88H266.87l0-.67,38.94,0Z"/><path class="cls-141" d="M566.57,4c-.11.12-.22.33-.35.34a206.75,206.75,0,0,1-38.62-.14Z"/><path class="cls-143" d="M129.86,2.76l-16.07.47L95,3c0-.29,0-.58,0-.87h35Z"/><path class="cls-144" d="M382.7,4l-29-.1c-.3-.17-.4-.33-.29-.48a.41.41,0,0,1,.32-.22h29c.35.17.46.35.35.53S382.82,4,382.7,4Z"/><path class="cls-145" d="M266.84,3.2c0,.22,0,.45,0,.67l-25.94-.06c-.38-.12-.52-.27-.41-.44s.22-.27.34-.27Z"/><path class="cls-146" d="M305.76,3.88c0-.22,0-.43,0-.65h25l0,.68Z"/><path class="cls-147" d="M382.7,4V3.24h23.91C398.69,5,390.67,3.7,382.7,4Z"/><path class="cls-148" d="M330.74,3.91c0-.23,0-.45,0-.68h23c0,.24,0,.47,0,.7Z"/><path class="cls-149" d="M129.86,2.76a4.34,4.34,0,0,1,.06-.61h20l-.07.62Z"/><path class="cls-150" d="M240.85,3.1c0,.24.05.48.07.72l-16,0,0-.47,7.1-.4Z"/><path class="cls-25" d="M149.84,2.78c0-.21,0-.41.07-.62h15l0,.66Z"/><path class="cls-151" d="M185.85,2.14c-3.91,1.82-8,.56-12,.77-.28-.19-.37-.37-.26-.53s.21-.23.32-.23Z"/><path class="cls-152" d="M173.89,2.15a4.87,4.87,0,0,1-.06.76l-9-.09c0-.22,0-.44,0-.66Z"/><path class="cls-153" d="M31.13,136.13c-7.1,1.16-14.25.46-21.37.41-3.9,0-5.1,1.05-5.1,5,0,17.79-.31,35.59-.52,53.39-3.42-.56-.52-3.61-2-5q-.08-26.3-.15-52.6c0-.91-.32-2.06,1.09-2.36,7.57,1,15.17.14,22.75.48C27.62,135.6,29.5,134.88,31.13,136.13Z"/><path class="cls-154" d="M32.17,3.22l-.32,10.9c-.73,2.5-.17,5.06-.35,7.59V116c0,2.33,0,4.66,0,7q0-3,0-6.09c.12-1.07-.35-2.25.64-3.13.52,7.39,1.84,14.79-.23,22.16-.53-.66-1.66-.13-2.05-1.06,1.42-2.32.74-4.87.72-7.32q-.36-61.17-.79-122.35a5.75,5.75,0,0,1,.17-1C30.31,2.94,31.22,3,32.17,3.22Z"/><path class="cls-155" d="M2.18,190c1.7,1.24-.05,3.84,2,5q0,7,0,13.95c-1.35,5.08-.2,10.28-.66,15.41a.82.82,0,0,1-1.27.61Q2.18,207.48,2.18,190Z"/><path class="cls-156" d="M2.2,224.94H3c1.11,8.21.19,16.45.53,24.67.07,1.77-.57,3.64.56,5.3a.93.93,0,0,1,.22.78,1.46,1.46,0,0,1-2.17.26Q2.17,240.44,2.2,224.94Z"/><path class="cls-22" d="M29.89,134.84c.68.35,1.69.08,2.05,1.06a1.39,1.39,0,0,1-.81.23q-12.52-.15-25-.3c-1,0-2.33.8-3-.78Z"/><path class="cls-157" d="M2.16,256l2.17-.26a1.05,1.05,0,0,1,.7.23,1.32,1.32,0,0,1,.43,1.57l-.4.44-1,0c-.37.47-.71.42-1-.08l-.36-.11H2.32Z"/><path class="cls-158" d="M830.54,674.65a2.34,2.34,0,0,1,2.1,1.18l-.15-.2c-1.44,4.49-.47,9.09-.6,13.64-.19,6.42,0,12.85,0,19.27.22,11.33-.45,22.67.35,34v33.07c-.78,9-.08,18-.41,27,0,1.33,1.27,3.45-1.42,3.92q0-43.31,0-86.61C830.35,704.84,830.47,689.75,830.54,674.65Z"/><path class="cls-159" d="M830.36,806.55c1.82-2,.8-4.45,1-6.69.58-8.07-1-16.22.87-24.25v32c-1.38,1.58-.79,3.5-.79,5.26q-.09,36.39-.11,72.78c0,1.6.46,3.27-1.1,6V826.26Q830.28,816.41,830.36,806.55Z"/><path class="cls-160" d="M832.19,742.54c-1.76-3.44-.68-7.12-.77-10.67-.19-7.75,0-15.51,0-23.26q.4-.66.81,0Q832.2,725.58,832.19,742.54Z"/><path class="cls-161" d="M832.18,708.61h-.81c0-9.31-.07-18.61,0-27.91,0-1.72-.75-3.72,1.12-5.07Q832.34,692.12,832.18,708.61Z"/><path class="cls-162" d="M829.5,931.5q0-14.46,0-28.91c1.77,5.78.49,11.71.8,17.56.2,3.78,0,7.58,0,11.36C830,931.93,829.76,932,829.5,931.5Z"/><path class="cls-163" d="M829.5,931.5c.26,0,.53,0,.8,0q0,8.5-.07,17c-.25.42-.49.44-.72,0Q829.5,940,829.5,931.5Z"/><path class="cls-164" d="M829.51,948.48l.72,0q0,8.5,0,17c-.23,0-.45,0-.68,0Z"/><path class="cls-3" d="M784.58,1033.28l-63.16.29-24.87.11c-15.12-.06-30.24-.17-45.36-.19q-58.34-.08-116.66-.09a2.49,2.49,0,0,1,.07-1q64.14.12,128.28.22,58.15.08,116.31.1C781,1032.74,782.86,1032.35,784.58,1033.28Z"/><path class="cls-165" d="M340.83,772.71l23.89-.27,0,.46,0,.45C356.75,773.2,348.74,774.86,340.83,772.71Z"/><path class="cls-166" d="M312.82,773.39c5.34-1.65,10.81-.57,16.22-.7C323.68,774,318.24,773.42,312.82,773.39Z"/><path class="cls-167" d="M364.71,773.35v-.45h4.82l0,.45Z"/><path class="cls-168" d="M399.56,868.54q0,10,.05,20c-.26.5-.49.45-.68,0l-.06-19.88Z"/><path class="cls-25" d="M398.93,888.44c.23,0,.45,0,.68,0,1,4.54-.82,9.34,1.27,13.78a1.69,1.69,0,0,1-1.79,1.13Q399,895.92,398.93,888.44Z"/><path class="cls-169" d="M399.56,868.54l-.69,0c0-2.33-.05-4.65-.08-7,.24-.5.5-.51.77,0Z"/><path class="cls-13" d="M399.56,861.56c-.26,0-.52,0-.77,0,0-2-.81-4.14.79-6C399.57,857.61,399.56,859.58,399.56,861.56Z"/><path class="cls-170" d="M479.67,900.65l12.95,0,0,.63-12.88,0C479.69,901.09,479.68,900.87,479.67,900.65Z"/><path class="cls-171" d="M500.62,900.57l6.84-.21,1,.45v.39l-7.94,0Z"/><path class="cls-172" d="M500.62,900.57c0,.22,0,.44-.05.66l-8,0,0-.63Z"/><path class="cls-173" d="M479.67,900.65a3.66,3.66,0,0,0,0,.66l-4.95.05c-.39-.11-.53-.26-.42-.43s.22-.28.34-.28Z"/><path class="cls-8" d="M474.68,900.65a2.53,2.53,0,0,0,.08.72c-1.71,0-3.52.68-5-.72Z"/><path class="cls-146" d="M266.88,709.78l-.15,8.82-.67-.05L266,708.6l.57-.36.59.34A1.05,1.05,0,0,1,266.88,709.78Z"/><path class="cls-174" d="M266.06,718.55l.67.05a20.28,20.28,0,0,1,0,6.95C265.22,723.34,266.12,720.9,266.06,718.55Z"/><path class="cls-175" d="M525.62,899.57c1.65-.23,3.31-.54,4.94.13,0,1.79-1,1.25-2,.84l-2.86-.27c-.39-.11-.54-.25-.43-.42S525.5,899.57,525.62,899.57Z"/><path class="cls-12" d="M398.55,803.61c0,2.64,0,5.29,0,7.93-1.62-2.53-.52-5.34-.81-8Z"/><path class="cls-166" d="M269.57,774.68c8.79-1.44,17.65-1.27,26.52-1-6.36,1.8-13,.22-19.41,1.75l-6.69,0A1.36,1.36,0,0,1,269.57,774.68Z"/><path class="cls-4" d="M533.75,1012.27q.38,10.1.76,20.19c-2.45-3.36-.55-7.17-1.07-10.73a43.13,43.13,0,0,1-.16-5.34C533.43,1015,533.59,1013.64,533.75,1012.27Z"/><path class="cls-27" d="M404.44,902.38c5.72-1.3,11.52-.82,17.31-.72.26.25.32.44.18.59a.5.5,0,0,1-.36.18l-10.69.24Z"/><path class="cls-15" d="M421.57,902.43a4.8,4.8,0,0,0,.18-.77l4.91,0C425.13,903.06,423.29,902.33,421.57,902.43Z"/><path class="cls-176" d="M525.62,899.57a4.31,4.31,0,0,0,.09.71c-1.71.05-3.51.72-5-.68Z"/><path class="cls-177" d="M392.47,661.43c.55-15.29.21-30.56-.59-45.84-.12-2.31,0-4.64,0-7,.68-1.83.19-3.73.34-5.59V570.84c-.05-3.71.1-7.42-.08-11.12-.39-1.56-.72-3.11.75-4.34a5.7,5.7,0,0,1,.4,1.42q.65,36.48,1.24,73c-.76,8.86-.11,17.74-.35,26.61-.05,1.78.4,3.62-.42,5.34l.09,0A.84.84,0,0,1,392.47,661.43Z"/><path class="cls-178" d="M389.53,482.07a3.15,3.15,0,0,1-.33-.93q-.68-40.22-1.31-80.44c.73-2.41.13-4.89.36-7.32.1-1-.56-2.46,1.31-2.58q.51,19.05,1,38.09c-.73,2.1-.18,4.27-.35,6.41v26.41a130.65,130.65,0,0,0,.5,16C390.58,479.2,391,480.9,389.53,482.07Z"/><path class="cls-166" d="M301.8,246c1.1-1.46,2.7-1,4.14-1q37.57-.54,75.15-1c1.89,0,4-.83,5.62,1-2.23,1.14-4.6.14-6.89.45-2.07-.25-4.06.52-6.11.5-2.36,0-4.72,0-7.08,0-5.05.22-10.12-.47-15.15.42-3.93-.19-7.81.78-11.75.58H323.46c-2,0-4,0-5.95,0C312.26,247,307,247.78,301.8,246Z"/><path class="cls-179" d="M301.8,246c5-.53,10.06,1.17,15.11.15,2.21.62,4.48.15,6.71.3h16.12c2.07.26,4.26-.62,6.23.65a26.61,26.61,0,0,1-3.41.47q-31.86.63-63.71,1.19c.54-2.28,2.38-1.12,3.63-1.27,3.42-.41,6.93.57,10.32-.56Z"/><path class="cls-180" d="M387.55,365.09c-1.19-4.73-.88-9.53-.72-14.32.84-2.67.2-5.42.41-8.13,0-1.71,0-3.41,0-5.13,0-3,0-6,0-8.94q0-11.15,0-22.28c.05-.91-.21-1.9.66-2.6a19.68,19.68,0,0,1,.5,2.91q.71,34.89,1.36,69.77c0,1.16-.13,2.32-.19,3.48-2.79-1.28-1-3.69-1.26-5.55a42,42,0,0,1-.08-6.35c0-3.41,0-6.83-.17-10.24-.25-.65-.9.07-.28-.17.14-.06.24.08.25.42C388.06,360.35,388.85,362.79,387.55,365.09Z"/><path class="cls-181" d="M267,708.46a1.69,1.69,0,0,1,0-1c16.74-.11,33.51,1,50.2-.62,4.68-.45,8.74-1.63,11.59,3.29.1.18,1.47-.38,2.25-.6-.78,1.74-2.63,3.14-3.77,1.63-3.51-4.62-7.64-2.17-11.65-1.75-14.46-.76-28.93-.1-43.39-.36-1.77,0-3.66.62-5.32-.6Z"/><path class="cls-159" d="M256.83,248.91a85.27,85.27,0,0,1-18.06.85c-2.39-.76-4.84-.18-7.25-.36h-6.71c-2.25-.24-4.57.53-6.77-.49l-.9-.87,7.72-.17c5.59-1,11.23-.16,16.84-.45,1.8-.1,3.65.37,5.4-.4l15.7.06C261.5,249.92,258.51,247.3,256.83,248.91Z"/><path class="cls-182" d="M148.91,252.92c-2.49,3.37-6,1.76-9.13,1.84-2.91-1.14-6.15.62-9-1l26.16-2c3-.94,6.18.35,9.17-.75l3.77.1c-.25.62.12,0,.2.45s-2.5,1.11,0,1.45c-3.67,1.5-7.48.85-11.26.76C155.56,252.72,152.12,254.14,148.91,252.92Z"/><path class="cls-183" d="M31.18,86.85q0-27.36-.08-54.73c.22-.52.47-.51.75,0q0,27.45.07,54.91C31.58,87.46,31.33,87.43,31.18,86.85Z"/><path class="cls-184" d="M17.05,257.74l-12,.18c0-.66,0-1.33,0-2l16.66-.15c5.4-1,10.9.32,16.3-.71h5.06a.8.8,0,0,1,.24.69c0,.24-.09.37-.15.37-.67.39-1.6.12-2.14.84l-1.79,0C31.85,258.11,24.41,256.71,17.05,257.74Z"/><path class="cls-185" d="M256.83,248.91c1.56-2,4.35,0,6-1.83l30-.17c-2.7,2-5.8.58-8.68,1-1.76.25-3.69-.54-5.27.84Z"/><path class="cls-186" d="M266.9,708.48c14.49,0,29,0,43.45.14,1.76,0,3.69-.6,5.26.82l-48.73.34Z"/><path class="cls-187" d="M392.9,555.38c-.15,1.55-.29,3.1-.44,4.65a.68.68,0,0,1-.85-.29c-1.4-4.65-1-9.39-.74-14.12.74-2.09.19-4.25.36-6.37v-5.92c.35-2.58-.74-5.28.66-7.76C393,535.48,392.75,545.43,392.9,555.38Z"/><path class="cls-153" d="M4.11,254.91c-1.73-1.41-1-3.38-1-5.11-.08-8.29,0-16.57,0-24.86.63-5.32-1.21-10.82,1.11-16Q4.12,231.92,4.11,254.91Z"/><path class="cls-188" d="M388.59,367.9c.55,4-.61,8.07,1,12q0,5.47,0,10.95c-2.08,3,.49,6.87-1.67,9.9q-.08-16.43-.14-32.86C388.07,367.38,388.35,367.38,388.59,367.9Z"/><path class="cls-189" d="M128.08,255.08a147.32,147.32,0,0,1-25.11.85c-3.69-.88-7.73,1.41-11.24-1.21,6-1.1,12.16-.88,18.27-.73,2.08.91,4.26.22,6.39.43H124C125.34,254.64,126.86,253.9,128.08,255.08Z"/><path class="cls-190" d="M170.06,253l-1.4-.43,1.22-1.47H172c4.63.4,9.27.78,13.88-.2,2.72-1.52,5.43-.89,8.15,0,1.36-.64,2.71-.9,4,.18C188.8,253,179.42,252.85,170.06,253Z"/><path class="cls-191" d="M386.54,303.09c-1.24-5-.91-10.12-.8-15.22,1-2.11.26-4.35.5-6.53s-.69-4.55.66-6.66a110.1,110.1,0,0,1,.78,21.24C386.37,298.16,388.16,300.9,386.54,303.09Z"/><path class="cls-192" d="M390.56,504.88c-1.26-6.66-.89-13.38-.89-20.09,1.2-2.32.28-4.81.56-7.2.2-1.33-.49-2.79.62-4,1.18,5,1,10.12.77,15.21-.87,2.06-.21,4.22-.42,6.32,0,2.48,0,5,0,7.44C391.15,503.39,391.39,504.28,390.56,504.88Z"/><path class="cls-193" d="M393.77,661.72c0-9.07-.09-18.15-.06-27.23,0-1.59-.5-3.34.83-4.72.09,9.67.2,19.35.25,29C394.8,659.84,395.3,661.17,393.77,661.72Z"/><path class="cls-16" d="M31.18,86.85a2.11,2.11,0,0,0,.74.14q.13,13.38.25,26.75c-.12,1.05-.23,2.1-.34,3.16h-.65Z"/><path class="cls-194" d="M379.74,245l7,0q0,9.47-.08,18.94c-.3.48-.6.46-.9,0-.1-3.94-.57-7.91-.21-11.81.42-4.6-1-6.83-5.78-6.24-.34-.2-.45-.39-.34-.59S379.62,245,379.74,245Z"/><path class="cls-166" d="M247.1,247c-7.37,1.36-14.81.9-22.24.85C232.21,245.82,239.69,247.28,247.1,247Z"/><path class="cls-195" d="M390,461.7l-.09-21.85.67,0,.05,21.95Z"/><path class="cls-196" d="M390.56,504.88c.15-.68.29-1.36.44-2l.64-.07q0,10.49,0,21-.44.71-.87,0Z"/><path class="cls-197" d="M56,255.06,74,255q.48,1-.57,1.29c-5.59.11-11.18.1-16.77,0C55.91,256.15,55.71,255.73,56,255.06Z"/><path class="cls-198" d="M360.53,689.56c1-2.36.45-5.42,3.28-6.89a.83.83,0,0,1,1.36.09c-1.56,2.11-.87,5.2-3.07,7A1.07,1.07,0,0,1,360.53,689.56Z"/><path class="cls-199" d="M73.93,255.69c0-.22,0-.44,0-.65l17-.12a.89.89,0,0,1-.56,1.41C84.91,256.07,79.37,257.18,73.93,255.69Z"/><path class="cls-9" d="M38,255.06c-5.37,1.76-10.86.63-16.3.71C27.08,254.62,32.54,255,38,255.06Z"/><path class="cls-200" d="M390,461.7l.63.06q.12,5.92.25,11.85l-.33,3.86-.25.76-.32-.74Q390,469.6,390,461.7Z"/><path class="cls-201" d="M128.08,255.08l-4-.44c-.4-.1-.55-.23-.44-.4s.23-.28.34-.28l6.83-.24c2.93,1,6.14-.52,9,1Z"/><path class="cls-10" d="M350,695.65a11.43,11.43,0,0,1,6.76-2.06.8.8,0,0,1,.37.8q-.08.45-.21.45a7.75,7.75,0,0,1-6.17,1.6A1.07,1.07,0,0,1,350,695.65Z"/><path class="cls-202" d="M185.89,250.9a23.62,23.62,0,0,1-13.88.2l6.87-.37Z"/><path class="cls-203" d="M705.44,318.79a2.11,2.11,0,0,0,1,2c-.28,1-.57,1.95-.85,2.92-2.58.05-2.14-2.55-3.29-3.75.2-1.11,0-2.34,1-3.24C705.18,316.18,704.63,318.21,705.44,318.79Z"/><path class="cls-204" d="M331.72,709.14c1.47-2.41,3.75-3.33,6.43-3.57C336.91,708.39,335,709.91,331.72,709.14Z"/><path class="cls-205" d="M372.75,676.06c-.55-4.1,2.53-4.65,5.33-5.46C377.26,673.34,374.62,674.32,372.75,676.06Z"/><path class="cls-206" d="M356.9,694.84c0-.42-.11-.83-.16-1.25a4.34,4.34,0,0,1,3.79-4l1.57.23C361.05,692.18,358.55,693.07,356.9,694.84Z"/><path class="cls-207" d="M350,695.65l.75.79c-1.33,2-2.56,4-5.3,4.27C345.8,698,347.76,696.71,350,695.65Z"/><path class="cls-165" d="M90.87,255.64a2.84,2.84,0,0,1,.09-.72.64.64,0,0,1,.77-.2c3.67,1.12,7.68-.88,11.24,1.21l-.44.11-.46,0C98.32,256.43,94.56,257.05,90.87,255.64Z"/><path class="cls-208" d="M732.38,451.72c1.46-1.05,2.1.16,2.86,1,.26.19.37.39.31.61s-.13.35-.21.35c-1.69,1-.8,2.77-1.07,4.18A11.52,11.52,0,0,1,732.38,451.72Z"/><path class="cls-209" d="M31.85,32.08a4.71,4.71,0,0,0-.75,0l-.06-11c.26-.47.54-.5.82,0C31.85,24.75,31.85,28.41,31.85,32.08Z"/><path class="cls-210" d="M390.81,523.73h.87l.21,1.84c-.16,2.69-.31,5.39-.47,8.09l-.6.06Q390.81,528.72,390.81,523.73Z"/><path class="cls-163" d="M386.54,303.09c.91-2.3-.52-5,1.14-7.17.07,2.59.15,5.18.22,7.77l-.46,2.3-.69-.1Z"/><path class="cls-211" d="M338.71,705.14c1.13-2,2.61-3.37,5.14-2.8A4.21,4.21,0,0,1,338.71,705.14Z"/><path class="cls-212" d="M702.51,296l-2.88.14c.25-.7.51-1.4.77-2.09,1.79-.87,3.66-2.21,4.83.77l.22,0C704.66,295.67,703.79,296.33,702.51,296Z"/><path class="cls-213" d="M385.73,263.9c.3,0,.6,0,.9,0,0,3,.05,6,.08,9-.32.46-.65.46-1,0Z"/><path class="cls-214" d="M705.44,318.79l-1.89-2a2.18,2.18,0,0,1-2.15-1c.67-.91,2.15-1.26,2-2.78l2.4,3.75C705.65,317.42,705.55,318.1,705.44,318.79Z"/><path class="cls-157" d="M385.73,272.89h1c.06.6.13,1.2.19,1.79l-.45,7c-.1.61-.34.64-.69.16Z"/><path class="cls-166" d="M166.11,251c-3,1.27-6.09.79-9.17.75C159.88,250.1,163,251.14,166.11,251Z"/><path class="cls-215" d="M124,254a5.06,5.06,0,0,1,.1.68l-8,.07c-.4-.1-.56-.24-.46-.43s.22-.31.34-.31Z"/><path class="cls-216" d="M365.17,682.76l-1.36-.09c.78-1.41,1.44-3.11,3.48-2.77.87.14.31,1.07.27,1.66Z"/><path class="cls-217" d="M701.4,315.77c.79.2,1.7.13,2.15,1-.12,1.18,0,2.44-1.22,3.2A3.61,3.61,0,0,1,701.4,315.77Z"/><path class="cls-213" d="M391.64,502.77a2.79,2.79,0,0,1-.64.07q0-4,0-7.92c.12-.57.34-.64.66-.13Q391.64,498.78,391.64,502.77Z"/><path class="cls-218" d="M378.77,670.62c0-2.7,1.62-3.17,3.86-2.79C381.75,669.32,380.2,669.88,378.77,670.62Z"/><path class="cls-219" d="M56,255.06c0,.23,0,.45,0,.67-2.07,1.35-4.35.39-6.53.6a.78.78,0,0,1-.49-1.27Z"/><path class="cls-220" d="M705.23,294.77c-1.4-1.58-3.18-.76-4.83-.78l1.11-1.09a5.78,5.78,0,0,1,5,0c.07.64.15,1.28.22,1.92Z"/><path class="cls-221" d="M31.86,21.08h-.41l-.41,0c.28-2.32-.79-4.8.81-7Q31.85,17.6,31.86,21.08Z"/><path class="cls-92" d="M741.45,399.68a6.41,6.41,0,0,0-3.83,1l-1.26-1.83C738.1,398.86,739.93,398.34,741.45,399.68Z"/><path class="cls-222" d="M389.79,434.84c.12-2-.74-4.13.77-5.95v5.93C390.32,435.27,390.06,435.25,389.79,434.84Z"/><path class="cls-223" d="M49,255.06q0,.36,0,.72a7.2,7.2,0,0,1-6,.11,7.63,7.63,0,0,1,0-.83Z"/><path class="cls-224" d="M391.62,494.79a5.13,5.13,0,0,0-.66.13c-.06-2.06-.85-4.21.66-6.1Z"/><path class="cls-225" d="M116,254a3.17,3.17,0,0,0,.12.75c-2,0-4.21.86-6.08-.73Z"/><path class="cls-226" d="M718.52,370.87a5.19,5.19,0,0,1,0,5.95Z"/><path class="cls-227" d="M392.47,661.43l1.39.33c-1.1,2.41-3.14.8-4.73,1.11-1.1.38-1.49-.1-1.39-1.16Z"/><path class="cls-228" d="M387.74,661.71l1.39,1.16c-1.53.49-2.63,2-4.43,1.89C385,663,386.29,662.3,387.74,661.71Z"/><path class="cls-229" d="M389.79,434.84a6.6,6.6,0,0,1,.77,0v5a4.92,4.92,0,0,0-.67,0Z"/><path class="cls-230" d="M699.65,299.08c-.75,1.54-.39,3.15-.29,4.74C698.12,302.16,697.7,300.55,699.65,299.08Z"/><path class="cls-231" d="M706.5,292.88l-5,0C703.17,292.12,704.83,291.15,706.5,292.88Z"/><path class="cls-232" d="M702.51,296l2.94-1.15C705.28,297.26,704.32,297.68,702.51,296Z"/><path class="cls-233" d="M225,3.32l0,.47H208.21C213.76,2.44,219.36,3.32,225,3.32Z"/><path class="cls-221" d="M31.18,116.9a1.3,1.3,0,0,0,.65,0v6.86l-.65,0Z"/><path class="cls-9" d="M43,255.89l6-.11,7-.05,17.88,0,16.94-.05,11.2.37a6.63,6.63,0,0,1-1.86.57Q70.6,256.81,41,257A2.2,2.2,0,0,1,43,255.89Z"/><path class="cls-234" d="M351.62,245.79c5-1.17,10.1-.93,15.19-.78,2.31.89,4.72.2,7.08.42,1,.14,2.18-.38,3,.66-5.67,1.15-11.4,1.08-17.14.83-2.2-1-4.53-.26-6.79-.53A1.47,1.47,0,0,1,351.62,245.79Z"/><path class="cls-235" d="M386.75,305.89a3.19,3.19,0,0,0,.69.1q0,11.4,0,22.81l-.6,0Q386.8,317.37,386.75,305.89Z"/><path class="cls-9" d="M17.05,257.74c7.34-1.76,14.77-.56,22.16-.74C31.86,258.41,24.45,257.76,17.05,257.74Z"/><path class="cls-236" d="M207.1,250.31a14.65,14.65,0,0,1,9.78-.95C213,251.15,210.06,251.27,207.1,250.31Z"/><path class="cls-164" d="M392.5,570.77q0,7.44,0,14.87l-.66,0q0-7.48,0-14.95Z"/><path class="cls-237" d="M351.62,245.79l1,.42c.44.07.61.19.51.38s-.22.34-.34.34l-6.78.15-6.31-.49.08-.55Z"/><path class="cls-238" d="M388.59,367.9l-.84-.06c-.07-.92-.13-1.84-.2-2.76.13-2.29.27-4.59.4-6.88l.64,0Z"/><path class="cls-239" d="M392.5,570.77a4.87,4.87,0,0,0-.66,0l-.23-11a2.74,2.74,0,0,1,.85.28Q392.49,565.41,392.5,570.77Z"/><path class="cls-240" d="M198,251.09l-4-.18c3.07-2.26,6.4-.43,9.59-.88C201.94,251.74,199.91,250.83,198,251.09Z"/><path class="cls-174" d="M391.88,585.68a4.87,4.87,0,0,0,.66,0l.09,10c-.23.49-.48.53-.75,0Z"/><path class="cls-229" d="M148.91,252.92c3.28.5,6.73-1,9.89.84C155.51,253.41,152,255.27,148.91,252.92Z"/><path class="cls-241" d="M386.86,328.84l.6,0c0,3,0,6,0,9l-.61,0Z"/><path class="cls-30" d="M387.56,342.78c-.12,2.68.94,5.46-.73,8,0-2.64,0-5.29,0-7.94C387.05,342.41,387.29,342.39,387.56,342.78Z"/><path class="cls-242" d="M391.88,595.67a4.71,4.71,0,0,0,.75,0l.06,8c-.26.5-.53.48-.81,0Z"/><path class="cls-243" d="M352.75,246.93c-.05-.24-.1-.48-.17-.72,2.41,0,4.93-1,7.17.71Z"/><path class="cls-244" d="M218,248.91l6.71.26.08.6C222.56,249.54,220.07,251.09,218,248.91Z"/><path class="cls-190" d="M390,477.49a.42.42,0,0,0,.57,0c-.09,2.46,1.11,5.07-.85,7.32-.05-.91-.09-1.82-.14-2.72Z"/><path class="cls-25" d="M224.83,249.77a3.09,3.09,0,0,0-.08-.6l7-.08c.39.1.53.24.43.4s-.23.28-.34.28Z"/><path class="cls-245" d="M231.83,249.77a2,2,0,0,0-.09-.68c2.35.07,4.81-.85,7,.67Z"/><path class="cls-246" d="M385.76,281.88a4.18,4.18,0,0,0,.7-.16c.05,2.09.92,4.27-.72,6.15C385.75,285.88,385.75,283.88,385.76,281.88Z"/><path class="cls-247" d="M390.82,533.72l.6-.06c0,2,0,4,0,6l-.62.08Z"/><path class="cls-248" d="M390.82,539.71l.62-.08c.07,2,.77,4.1-.57,6C390.86,543.65,390.84,541.68,390.82,539.71Z"/><path class="cls-249" d="M376.89,246.09l-3-.45q-.63-.1-.48-.36c.11-.21.22-.31.34-.31h6c0,.29,0,.59,0,.88Z"/><path class="cls-187" d="M391.88,603.66a7.3,7.3,0,0,0,.81,0c-.17,1.67.61,3.5-.8,5C391.89,607,391.88,605.31,391.88,603.66Z"/><path class="cls-250" d="M387.56,342.78a3.49,3.49,0,0,1-.72.05l0-5,.61,0Z"/><path class="cls-251" d="M339.74,246a5.21,5.21,0,0,0-.08.55l-16.8,0-.07-.55Z"/><path class="cls-252" d="M373.75,245c0,.23.09.45.14.67-2.38,0-4.84.89-7.08-.63Z"/><path class="cls-253" d="M322.79,246.08c0,.18,0,.37.07.55-2,.05-4.06.72-5.95-.5Z"/><line class="cls-254" x1="32.17" y1="3.22" x2="94.95" y2="2.15"/><line class="cls-254" x1="829.51" y1="965.47" x2="829.23" y2="1034.52"/></g></g></svg>