<svg xmlns="http://www.w3.org/2000/svg" viewBox="0 0 301.97 316.57"><defs><style>.cls-1{stroke:#231f20;stroke-miterlimit:10;stroke-width:2px;}</style></defs><g id="Layer_2" data-name="Layer 2"><g id="Layer_1-2" data-name="Layer 1"><path class="cls-1" d="M104.57,315.5c.53-28.85,1.06-57.53,1.59-86.42h-5.41c0-.8,0-1.4,0-2q.61-40.4,1.21-80.8a36,36,0,0,1,1.24-8.88,52.26,52.26,0,0,0,1.21-8.29c.36-3.67.58-7.36.8-11a1.47,1.47,0,0,0-.59-1.18c-9.48-4.12-17.78-10.28-26.73-15.32a8.93,8.93,0,0,0-4.67-1.29c-16,.15-32,.21-48,.3h-1.9v-43H1c.17-13.29.34-26.42.51-39.66L17,13.28l.4,3.17c.42,0,.72.09,1,.08,30.27-.8,60.52.27,90.78.71q41,.6,81.9,1.33c1.36,0,1.86-.35,2.16-1.68.78-3.44.86-3.47,4.45-3.38,7.12.18,14.24.42,21.36.64h1.26c.17-4.34.35-8.57.52-12.94.68,0,1.24-.08,1.79-.09,4,0,8,0,12-.12a1.81,1.81,0,0,1,2,1.27Q242.45,14.68,248.41,27a10.72,10.72,0,0,0,2.33,3.23,7,7,0,0,1,2.31,4.25c.26,1.64.82,3.23,1,4.87a5.81,5.81,0,0,0,3.08,4.69,9.61,9.61,0,0,1,5,7.67,93,93,0,0,0,2.16,9.39,4.89,4.89,0,0,0,.81,1.65c2.25,2.93,4.5,5.86,6.84,8.71a3,3,0,0,0,1.91.93c2.27.12,4.55,0,7,0-.56,3.11-1.16,6-1.58,9a62.22,62.22,0,0,0-.59,7c-.11,3.9-.29,7.82,0,11.69a85.94,85.94,0,0,0,1.66,9.64c.38,2,.87,4.06,1.22,6.11a1.64,1.64,0,0,1-.43,1.28c-1.29,1.19-2.67,2.3-4.12,3.52-.83-1-.88-2.92-3.13-2.4,0,2.12.09,4.34-.05,6.56a4.06,4.06,0,0,1-1,2.28c-1.47,1.68-3.05,3.28-4.67,4.81a2.25,2.25,0,0,0-.7,2.36c.49,2.23.9,4.47,1.41,6.7.2.86.06,1.35-.82,1.64s-2,.79-3.16,1.24c.92,2.77,1.65,5.53,2.73,8.15a34.76,34.76,0,0,1,2.27,13.71,5.52,5.52,0,0,0,1.18,3.57q5,6.71,9.77,13.52a6.26,6.26,0,0,1,.92,2.54c.3,1.74.33,3.53.64,5.26.68,3.76-.73,7.2-1.7,10.64a15.2,15.2,0,0,0,.29,9.66c1.31,3.67,2.28,7.44,1.42,11.42a10.48,10.48,0,0,0-.29,2.78c.19,3.67.37,7.35.75,11,.82,7.8,1.74,15.58,2.67,23.37a3.49,3.49,0,0,0,.77,1.94c4.55,4.64,7.24,10.26,9.13,16.4,1.36,4.41,3.1,8.69,4.66,13,.18.47.3,1,.55,1.82H247.26l-.3.5A10.29,10.29,0,0,0,248,295c4.86,5.49,9.77,10.94,14.62,16.43a2.62,2.62,0,0,1,.7,1.76c-.1,1.1-1.1.85-1.85.84-24.6-.22-49.19-.62-73.79-.6-14.09,0-28.17.69-42.26,1.07l-39.61,1.06C105.48,315.58,105.12,315.53,104.57,315.5Zm140.64-24.34h53.23c-.28-.89-.42-1.38-.59-1.86-1.29-3.56-2.76-7.06-3.83-10.69a39.16,39.16,0,0,0-9.19-16.54,4,4,0,0,1-.86-2.23c-1.05-8.82-2.09-17.63-3-26.47a46.54,46.54,0,0,1-.31-9.28c.43-4.25.64-8.38-1.07-12.38s-1.4-7.76-.19-11.77c.88-2.93,2-5.92,1.43-9.13-.29-1.63-.33-3.31-.62-4.95a6.46,6.46,0,0,0-.94-2.53q-4.81-6.81-9.78-13.52a5.67,5.67,0,0,1-1.16-3.58,36.54,36.54,0,0,0-2.31-14c-1.2-3-2-6.08-3.06-9.27,1.09-.43,2.07-.89,3.09-1.21s1.22-.89,1-1.86c-.47-2.12-.92-4.26-1.26-6.41a2.41,2.41,0,0,1,.47-1.73c1.53-1.71,3.11-3.37,4.77-4.94a3.81,3.81,0,0,0,1.32-3.15c-.05-2.36,0-4.74,0-7.33,2.06.47,4.05-.27,5.15,1.74,2.63-1.8,2.7-1.81,2-4.78-1.8-7.24-2.95-14.54-2.39-22,.08-1.14-.05-2.29,0-3.43.15-2.12.29-4.24.58-6.34C278,79,278.52,76.6,279,74c-2.06,0-4,.08-5.89,0a2.91,2.91,0,0,1-1.89-.92c-2.53-3.1-5-6.27-7.42-9.45a5.87,5.87,0,0,1-.94-1.91c-.42-1.5-.7-3-1.06-4.55-.74-3.07-1-6.37-2.42-9.13-.9-1.8-3.4-2.79-5.09-4.24a3.82,3.82,0,0,1-1.17-1.89c-.67-2.61-1.16-5.26-1.82-7.87a6.62,6.62,0,0,0-1.17-2.1c-.91-1.24-2.16-2.3-2.82-3.65-4-8.11-7.79-16.29-11.7-24.43-.24-.49-.78-1.16-1.19-1.17-3.94-.09-7.89-.05-12-.05l-.54,13.21L195.38,15c-.35,1.32-.76,2.55-1,3.8-.2,1.09-.71,1.38-1.79,1.36-7.23-.18-14.46-.28-21.69-.39l-67.7-1.07c-28.54-.44-57.08-1.39-85.63-.58-.55,0-1.09,0-1.6,0l-.36-2.79c-3.83,1.12-7.48,2.24-11.17,3.24C3.33,18.86,3,19.38,3,20.5c-.11,11.39-.27,22.77-.42,34.16,0,.4.06.8.1,1.34H24.84V99h2.09q23.81-.14,47.59-.23a6,6,0,0,1,2.9.77c4.77,2.76,9.45,5.66,14.21,8.43s9.23,6,14.51,7.8c.9.3.8.88.75,1.59q-.45,5.58-.86,11.19c-.28,4-.57,8-2,11.78a7.44,7.44,0,0,0-.48,2.42c-.14,8.16-.23,16.33-.35,24.49q-.39,25.5-.81,51c-.05,3,0,6,0,9.24h5.32c-.54,29-1.06,57.68-1.6,86.67,51.82-2.14,103.41-2.93,155.05-1.68a5,5,0,0,0-.93-1.46c-4.4-4.92-8.76-9.89-13.23-14.75C245.76,294.92,245.42,293.37,245.21,291.16Z"/></g></g></svg>