<svg xmlns="http://www.w3.org/2000/svg" viewBox="0 0 304.33 536.88"><defs><style>.cls-1{stroke:#231f20;stroke-miterlimit:10;stroke-width:3px;}</style></defs><g id="Layer_2" data-name="Layer 2"><g id="Layer_1-2" data-name="Layer 1"><path class="cls-1" d="M270.49,1.5c-.13,3.27-.2,6.54-.41,9.8a13.47,13.47,0,0,1-.78,4.2,13.07,13.07,0,0,0,.24,10A54,54,0,0,0,279,40.88a11.44,11.44,0,0,1,1.9,3.94c1.46,4.59,2.8,9.21,4.19,13.82.1.32.43.66.36.93-1.07,4.64,1.86,8.29,4.2,11.24s2.61,5.41,2.7,8.49q1,34.59,1.92,69.16,1,35.19,2,70.39,1,37.64,2,75.29c.07,2.59-.07,5.19.08,7.77a2.7,2.7,0,0,1-2.58,3.22c-1.66.21-2.17,1.11-2.14,2.63,0,.74-.27,1.49-.23,2.22.06,1,0,2.27.52,3,2.72,3.47,1.66,5.14-1,7.43s-2.93,3.16-1.18,6.17a14.15,14.15,0,0,0,3.22,3.8c1.63,1.34,1.5,3.09,1.27,4.68-.35,2.33.34,3.52,2.56,4.41s2.75,3,1.69,5.54c-.36.87-1.07,1.61-1.38,2.49-.48,1.35-1.65,2.89.69,3.87a1.93,1.93,0,0,1,.77,1.69c-.48,2.3.77,3.71,2.26,5.07V363a11.48,11.48,0,0,0-1.65,2.91,4,4,0,0,1-3.33,3.4c-2.87.53-4,2.36-4.38,5.11a49.17,49.17,0,0,1-2,6.62c-.1.33-.31.7-.23,1,1.19,4.1-2.33,4.63-4.6,6.09a11.76,11.76,0,0,1-1.7.76c.31,1.08,1.06,2.21.76,2.88-1.12,2.49-2.13,5.32-4.05,7.07-1.7,1.55-2.9,2.83-3,5.11-.16,2.71-1,3.21-3.27,2.29a8.39,8.39,0,0,1-2.25,1.76c-.65.2-1.53-.29-2.71-.56,0,.06-.52.69-.39,1.14.49,1.72-.41,2.73-1.59,3.65s-1.12,1.91-.12,2.91a22.14,22.14,0,0,0,2,1.77c2.65,2,2.41,4.41-.62,5.9-.48.24-1,.44-1.49.66-1.53.69-2.4,1.49-1,3.18,1.17,1.38.64,2.43-1,3.19-1.91.92-2.3,2-1.64,4.15a13.06,13.06,0,0,0,.62,1.72,3,3,0,0,1-.64,3.9,2.34,2.34,0,0,0-.55,3.13,2,2,0,0,1-.45,2.86,2.65,2.65,0,0,0-.56,3.5,9.5,9.5,0,0,1,.52,2.33c.06.33-.12.83.05,1,.85.77,1.41,1.4.86,2.75-1,2.32-1.52,4.63-4,6.14-2.63,1.61-5.35,3.74-5.06,7.29.24,2.93,1,5.88,3.57,8a11.65,11.65,0,0,1,2.95,3.08c.64,1.15,1.21,2.81.85,3.93-.44,1.37-1.78,2.24-3.65,2.42a92.76,92.76,0,0,0-13.28,2.13c-1.73.43-3.23,2.16-4.59,3.54s-2.27,1.75-3.72.22a2.62,2.62,0,0,0-2.32-.53c-1.65.62-3.53,1-4,3.31-.58,2.7-1.53,5.32-2.12,8a4.72,4.72,0,0,0,.39,3.06c.95,1.63,2.32,3,3.4,4.55,1.83,2.64,3.59,5.33,2.41,8.81-.2.58-.37,1.16-.55,1.75-1.43,4.73-7,6.53-10.64,3.16a22.09,22.09,0,0,0-12.29-5.89,6.17,6.17,0,0,1-3-1.63c-3.9-3.51-8.73-4.93-13.64-6-2.84-.64-5.43.64-7.3,2.81-1.59,1.84-2.79,4-4.23,6a23.57,23.57,0,0,1-3.29,4.1c-3.45,3-3.57,7.51.73,9.72a6.42,6.42,0,0,1,.88.68l-3.23,1.63h-2.05a1.42,1.42,0,0,1-.16-.36c-.4-3.28-2.79-5.41-4.7-7.74-.7-.84-2.26-1-3.43-1.41l-.47.72c.69.56,1.35,1.16,2.08,1.67,2,1.43,2.34,3,.94,4.59a1.81,1.81,0,0,1-2.81.26c-1.74-1.29-3.52-2.52-5.36-3.64-1.57-.94-2.26-2.06-1.55-3.88s.13-2.93-1.28-4.1c-3.22-2.67-4.14-6.61-5.3-10.36-.21-.68.22-1.54.35-2.33a4.87,4.87,0,0,1-4.48-4c-.25-1.75,1.74-4.72,3.67-5.47.06,0,.13,0,.19-.06,3.55-1.26,4.48-3.5,2.78-7.08a21.55,21.55,0,0,0-2.53-3.95A23.6,23.6,0,0,1,150.3,479c-.71-3.07-.22-3.47,3.5-3a11.66,11.66,0,0,0-1.43-2.45c-1.71-1.7-2.7-3.5-1.9-6a2,2,0,0,0-1.05-1.68c-2.37-.67-4.42-1.64-5.82-3.83a2.79,2.79,0,0,0-2.09-.74c-2,0-2.91-.82-2.37-2.73a2.5,2.5,0,0,0-1.15-3.13c-2.51-1.68-4.5-4.18-7.73-4.74-.53-.1-1.33-.84-1.34-1.28,0-1.81-1.48-2.3-2.59-2.8-.53-.25-1.75.53-2.4,1.13-2.1,1.92-3.13,2.18-5.45,1-1.37-.69-3.27-4-2.67-5.36.51-1.13,1.71-1.95,2.8-3.12a11.88,11.88,0,0,0-2.47,0,3.71,3.71,0,0,1-4.2-1.72c-1.21-1.67-2.47-3.19-5-3.37-1-.08-2.28-1.77-2.83-3a3.86,3.86,0,0,0-2.71-2.4A10.13,10.13,0,0,1,97.86,428a43.87,43.87,0,0,1-3.27-3.64c-1.66-1.76-3.35-3.49-5.11-5.16A12.81,12.81,0,0,1,85.17,409c.22-4.84,1.19-9.31,4.93-13,1.49-1.47,2.06-4.07,2.59-6.27,1-4,2-7.68,5.46-10.41,2.4-1.89,2.41-5.5.66-8.46-2-3.39-2-3.95.74-6.95,1.39-1.55,2.88-3,4.4-4.46a3.23,3.23,0,0,0-.51-5.24c-1.61-1-3.24-2-4.75-3.18-2.22-1.7-4.47-3-7.44-2.92-1,0-2.16-.72-3.2-1.2-1.91-.88-3.75-2-5.71-2.71-2.49-.94-3.31-.5-4.18,2a13.3,13.3,0,0,1-3.49,5.12c-3.06,3-5.22,2.49-8.78-.85a11.14,11.14,0,0,1-3.27-6.84,37.19,37.19,0,0,0-2.34-7.5,2.5,2.5,0,0,1,.37-2.94c1.9-2.19,1.56-3.29.59-5.95a48.86,48.86,0,0,1-1.89-8.88c-.23-1.43-.47-2.64-1.89-3.38a3.86,3.86,0,0,1-1.27-1.3,30.21,30.21,0,0,0-8.68-8.17c-4-2.66-7.76-5.67-11.53-8.65a7.58,7.58,0,0,1-1.75-2.63c-.85-1.69-1.47-3.5-2.42-5.13a3,3,0,0,0-2-1.09,3.85,3.85,0,0,1-3.62-3.55c-.23-1.78-1.25-2.6-2.79-3.35a14.22,14.22,0,0,1-3.33-2.81c-1.6-1.53-3-3.3-4.71-4.66-2.64-2.08-4.59-4.31-3.45-7.94a3.28,3.28,0,0,0-1.73-4.27,6.28,6.28,0,0,1-1.32-1c-3.2-3.23-3.75-5.34-1.34-8.56.4-.53.23-1.59.1-2.37a4.31,4.31,0,0,0-.9-1.59c-3.3-4.6-4.08-10-4.82-15.38a10.91,10.91,0,0,0-.39-1.35v-5.73a81.64,81.64,0,0,0,1.66-8.83c.3-3.42,4.31-9.53,7.62-10.56,1.34-.41,1.69-1.16,1.35-2.23a9.65,9.65,0,0,1,.59-6.77c.72-1.8-.23-3.18-1.41-4.39-1.75-1.8-1.78-2.34,0-4.18a3.53,3.53,0,0,0,.7-.75c2.53-5.05,7.23-5.93,12.11-5.87,3,0,4.92-1.48,6.77-3.21.68-.63.61-2.12.79-3.23a25,25,0,0,1,.47-3.6c.63-1.86,1.6-3.58.88-5.68a2,2,0,0,1,.44-1.7c3.19-2.81,4.53-7.31,8.6-9.32a2.31,2.31,0,0,0,1.09-1.6q.56-6.06.92-12.14a11.83,11.83,0,0,0-2.61-7.77,3,3,0,0,0-2.07-1.12,2.63,2.63,0,0,1-2.56-1.56c-1.2-1.89-2.69-3.59-3.89-5.47a3.38,3.38,0,0,1-.52-2.5,39.6,39.6,0,0,1,2.33-4.71,3.49,3.49,0,0,0,.35-.73c.65-3,1.24-5.91,2-8.85a3,3,0,0,1,1.25-1.9c2-.88,4.12-1.94,6.41-.7,1.52.82,2.87.15,4-.79,2.41-2.1,5-2,8-1.66,4.18.49,8.5.53,11.73-3,.72-.79,1.2-1.91,2.06-2.43,1.87-1.12,3.87-2,6.15-.85a2.93,2.93,0,0,0,3.82-1c1.9-2.29,4-4.3,7-5.07.41-.11.85-1.18.81-1.78-.18-3-.19-6,1.65-8.64a.93.93,0,0,0,.16-.58c-.46-4.53,2.6-6.55,5.94-8.37a12.93,12.93,0,0,1,2-1c1.42-.51,1.66-1.39,1.8-2.89a60.29,60.29,0,0,1,1.79-8c.09-.39.37-.92.21-1.18-1.46-2.37.07-4.31.7-6.45a5,5,0,0,0-.65-3.27,9,9,0,0,1-.95-6.51c.32-1.32.24-2.42-1.48-2.7-.4-.06-1-.54-1-.84-.08-2-1.73-2.45-3.09-3.1-2.57-1.25-5.17-2.43-7.79-3.58-3.12-1.37-5.67-6.13-5-9.38a4.89,4.89,0,0,0-.83-4.37c-2-2.55-4-5-7.27-6-.46-.14-1.12-.61-1.17-1-.19-1.77-1.4-2-2.8-2.61a10.36,10.36,0,0,1-3.76-3,2.7,2.7,0,0,1,0-2.56,3.34,3.34,0,0,1,2.45-1.22c20,.05,40,.26,60,.31,28,.06,55.94.11,83.91,0,15.08-.07,30.15-.51,45.23-.81.94,0,1.88-.2,2.82-.3Zm-31,490.81a17,17,0,0,1,2.27-2.81c1.31-1,2.72-2.32,4.26-2.64,4.32-.91,8.75-1.29,13.1-2.08a4,4,0,0,0,2.61-1.79c.33-.65-.18-2-.71-2.74a19.21,19.21,0,0,0-3-3.06c-2.74-2.46-3.45-5.79-3.78-9.18a4.6,4.6,0,0,1,1.13-3.15,47,47,0,0,1,5.26-5c1.41-1.17,3.06-4.89,2.66-6a47.59,47.59,0,0,1-1.75-6.39,3.14,3.14,0,0,1,.91-2.12,2.17,2.17,0,0,0,.48-2.53c-.31-.86-.36-2.31.16-2.86,1.65-1.73,1.45-3.28.6-5.3-1.2-2.86-.42-4.43,2.34-5.9a4.21,4.21,0,0,0,.71-.62c-2.17-3.88-2.06-4.19,2.1-6.14a2.54,2.54,0,0,0,.38-.16q3.28-1.81.33-4.1a19.46,19.46,0,0,1-1.58-1.3c-2.14-2-2.1-3.14-.06-5.29a3.07,3.07,0,0,0,.91-2c-.13-1.4.16-2.61,1.44-3,.7-.24,1.69.39,2.8.69.6-1.9,2.05-2.53,4.23-.87a10.33,10.33,0,0,1,.22-2.26c.65-1.59,1-3.79,2.23-4.56a10,10,0,0,0,4.46-6.49,3.84,3.84,0,0,0-.2-2.32c-.62-1.41-.11-2.12,1.14-2.74,1.84-.92,3.62-2,5.42-3a9.25,9.25,0,0,1,0-4.1c.67-2.79,1.41-5.56,2.27-8.29a5.18,5.18,0,0,1,4-3.71c1.86-.38,3.2-1.12,3.24-3.27a2.3,2.3,0,0,1,.49-1.11c1.74-2.51,1.5-4.85-.28-7.28-.57-.78-.52-2-.8-3-.17-.59-.28-1.52-.68-1.68-1.7-.7-1.78-1.91-1.28-3.33a20.71,20.71,0,0,1,1.43-3.1c1.68-3,1.31-4.43-1.78-5.82-1.66-.75-2.38-1.68-2.1-3.62.35-2.35.24-4.51-2.26-6.19-1.47-1-2.45-3.12-3-4.94a4.27,4.27,0,0,1,1.77-5.17c3.4-2.29,3.36-3.07,1.33-6.58a8.05,8.05,0,0,1-.61-3.44c-.05-.86.26-1.73.27-2.61a2.94,2.94,0,0,1,2.73-3.24c1.77-.23,2.57-1,2.13-2.85a8.08,8.08,0,0,1-.12-1.63q-.9-34.28-1.8-68.55-1.2-43.58-2.43-87.16-.91-33.66-1.87-67.32a5.47,5.47,0,0,0-1.11-3.33,22.58,22.58,0,0,1-5.86-11.41c-.45-2.62-1.3-5-1.92-7.55-.8-3.29-1.62-6.58-2.56-9.82a8.45,8.45,0,0,0-1.64-3,55.36,55.36,0,0,1-8.94-13.88c-1.85-4.19-2.47-8.31-.86-12.87,1.32-3.76,1.12-7.87,1-12-1.42,0-2.57,0-3.72,0C245.37,3.11,225.18,3.8,205,3.82c-44.7,0-89.39-.29-134.08-.42-1.22,0-3.22-.83-3.34,1.12-.07,1,1.48,2.14,2.35,3.18a1.62,1.62,0,0,0,.92.41c1.71.23,3.24.61,3.28,2.82,0,.27.52.65.87.76,3.46,1.11,5.56,3.75,7.69,6.46a5.38,5.38,0,0,1,1,4.76,8.37,8.37,0,0,0,4.43,8.53c2.81,1.23,5.58,2.55,8.34,3.88,1.32.64,2.83,1.15,2.94,3,0,.26.54.62.88.7,1.88.41,2.14,1.66,1.79,3.26A8.25,8.25,0,0,0,103,48.8c1.26,2,1,4-.17,6-.31.55-.73,1.45-.51,1.82,1.12,1.83.34,3.55,0,5.33-.48,2.58-.82,5.18-1.38,7.74a3,3,0,0,1-1.35,1.59c-1.74,1.07-3.61,1.93-5.34,3-2,1.26-3.32,3-3.08,5.58a2.61,2.61,0,0,1-.31,1.56,11,11,0,0,0-1.42,8,2.34,2.34,0,0,1-1.81,3,10.05,10.05,0,0,0-5.74,4,4.88,4.88,0,0,1-6.3,1.79c-1.95-.74-4.27.49-5.63,2A12.15,12.15,0,0,1,65.32,104a18,18,0,0,1-10.28.58,5.26,5.26,0,0,0-4.78,1c-2.08,1.59-4.18,2.65-6.94,1.26-1.59-.8-5,.69-5.26,2-.63,2.88-1.21,5.77-1.84,8.65a5.91,5.91,0,0,1-.51,1.32A46,46,0,0,0,33.66,123a2.63,2.63,0,0,0,.36,2c1.12,1.7,2.49,3.24,3.55,5,.56.91,1,1.39,2.16,1.36a3.08,3.08,0,0,1,2.25,1c3.16,4.14,3.71,8.92,3.14,13.93-.21,1.81-.28,3.66-.66,5.43a11.35,11.35,0,0,1-1.59,4.2c-1,1.37-2.62,2.28-3.81,3.54-1.38,1.47-2.49,3.2-3.88,4.65a3.16,3.16,0,0,0-1,3.08,9.3,9.3,0,0,1-.32,3.16c-.35,1.91-.74,3.82-1.17,5.71-.26,1.17-.26,2.69-1,3.39-2.11,2-4.36,3.73-7.7,3.54-5.93-.32-10.29,2.33-12.79,8a2,2,0,0,0,.37.46,5.82,5.82,0,0,1,1.94,7.09,10.83,10.83,0,0,0-.28,4.75c.29,2.5.08,3.09-2.31,3.9a7.47,7.47,0,0,0-4.17,3.64c-2,3.39-2.31,7.17-3.19,10.82a20.14,20.14,0,0,0-.82,5.23c.21,7.24.82,14.41,5,20.69.23.34.39.73.63,1.05A3.14,3.14,0,0,1,8.2,253a3.53,3.53,0,0,0,0,5,11.93,11.93,0,0,0,2.52,2.35c2.06,1.35,3.1,3,2.27,5.5-1.06,3.22.79,5,3.05,6.85,1.81,1.46,3.3,3.34,5,5a10,10,0,0,0,2.87,2.4c1.9.77,3.13,1.84,3.37,3.92a3,3,0,0,0,3.05,2.92,3,3,0,0,1,2.11,1c1.07,1.79,1.86,3.74,2.8,5.62a6.89,6.89,0,0,0,1.44,2.36c3.05,2.36,6.23,4.55,9.32,6.86a71.69,71.69,0,0,1,6.35,5c2,1.88,3.53,4.35,5.66,6.05a6.82,6.82,0,0,1,2.57,5,31.09,31.09,0,0,0,1.82,8.05c1.07,2.51,1.21,4.59-.57,6.6-.84.95-.66,1.69-.22,2.71.82,1.93,1.88,3.9,2.05,5.91a13,13,0,0,0,3,7.6c2.24,2.67,4.47,2.77,7.27.69a10.65,10.65,0,0,0,3.43-5.17c.93-2.38,2.22-3.06,4.64-2.28,1.87.6,3.59,1.63,5.43,2.32s3.81,1.2,5.7,1.85a22.51,22.51,0,0,1,4.31,1.71c2.4,1.42,4.64,3.11,7,4.65a4.45,4.45,0,0,1,.53,6.64c-1.6,1.54-3.21,3.08-4.72,4.71-2.1,2.27-2.1,2.7-.55,5.31,2.17,3.63,2,7.67-.86,10.11s-4,5.64-4.89,9.15c-.66,2.58-1.32,5.57-3,7.38-3.75,4-4.65,8.55-4.52,13.54a10.53,10.53,0,0,0,4.9,8.73,17.66,17.66,0,0,1,3.16,3.13,46.88,46.88,0,0,0,3.48,4.27,13.3,13.3,0,0,0,4,2.17c1.58.64,2.84,1.32,3.37,3.19.26.93,1.44,2.31,2.14,2.27,2.6-.13,4,1.6,5.1,3.22s2.41,2.23,4.29,1.69c1.6-.46,2.76.12,3.69,1.76-.73.48-1.46.93-2.14,1.43-.48.36-1.34.95-1.27,1.16.52,1.47,1,3.15,2,4.2s2.66.87,3.94-.49c2.85-3.05,3-2.4,6-.16.49.35.66,1.12,1,1.67s.57,1.08.92,1.13c2.63.33,4.26,2.28,6.29,3.62,2.26,1.5,3.95,3.15,3,6.17,0,.12.19.33.07.13,1.52.45,3.22.43,3.79,1.23,1.69,2.33,3.94,3.38,6.53,4.19a2.34,2.34,0,0,1,1.14,1.94c-.94,2.69.14,4.57,2,6.32a3.31,3.31,0,0,1,.89,1.56c.34,1.54-.41,2.3-2,2.15l-1.43-.09c.23,1.38.16,2.71.69,3.73,1.55,3,3.22,5.92,5.06,8.73a12.41,12.41,0,0,1,2.11,6.92c0,1.86-.72,3.15-2.63,3.6a12.78,12.78,0,0,0-1.39.33c-1.65.54-3.54,2.86-3.23,4.32.36,1.69,1,3.23,3.33,3.08.36,0,1.18,1,1.11,1.45-.84,4.66,1.5,8.22,4.29,11.32,1.65,1.84,2.51,3.37,1.84,5.77a2.27,2.27,0,0,0,.64,2c2.15,1.5,4.43,2.81,6.7,4.22,1.32-1.25,1.3-2-.17-3.1a11.54,11.54,0,0,1-2.19-1.77,2.07,2.07,0,0,1-.21-1.86c.25-.42,1.13-.55,1.75-.61a29.27,29.27,0,0,1,3,0c.92,1.26,1.94,2.58,2.87,4a14.63,14.63,0,0,1,2,3.52c.57,1.88.87,2.11,2.68,1-3.76-3.91-3.71-7,.19-10.84a7,7,0,0,0,.74-.7c.82-1.08,1.61-2.17,2.41-3.26a70.26,70.26,0,0,1,5.09-6.82,7.88,7.88,0,0,1,7.67-2.52c5.12,1.3,10.28,2.69,14.33,6.51a5.46,5.46,0,0,0,2.87,1.37,20.53,20.53,0,0,1,11.73,5.66c3.38,3.16,8,1.75,9.28-2.64.12-.39.24-.78.39-1.16,1.26-3.19-.41-5.62-2.11-8a50.93,50.93,0,0,1-3.57-4.93,5.92,5.92,0,0,1-.43-3.7c.55-2.71,1.59-5.31,2.15-8s2.88-3.37,5-4.26C236.9,489.41,238,490.47,239.48,492.31Z"/></g></g></svg>