<svg xmlns="http://www.w3.org/2000/svg" viewBox="0 0 1001.37 615.54"><defs><style>.cls-1{stroke:#231f20;stroke-miterlimit:10;stroke-width:3px;}</style></defs><g id="Layer_2" data-name="Layer 2"><g id="Layer_1-2" data-name="Layer 1"><path class="cls-1" d="M686.86,480.1c1.2,8-3.58,8.51-8.94,9.26-8.64,1.22-16.31,4.68-21.61,12.53,6,3.87,6.77-3.46,10.6-4.62,2.92,1.17,4.1,3.1,2.41,6.44a29.07,29.07,0,0,0-2.32,6c-.32,1.29-.48,3.17.21,4.08,2.86,3.71,6.06,7.15,9.36,11-3.78,2.9-6.73,1.83-9.5-.16-3.11-2.23-6-4.81-9.15-6.92-1.68-1.12-3.8-1.58-6.24-2.54a20.17,20.17,0,0,1-.61,4.06c-.65,1.55-1.31,3.81-2.51,4.24-1.49.53-3.53-.5-5.34-.86-2.05-.42-4.11-1.16-6.17-1.18-3.28,0-6.59.63-9.86.49-1.06,0-2.23-1.58-3-2.66a50.24,50.24,0,0,0-5.41-6.83c-1.83,4.51-4.31,5.65-8.43,5q-16.93-2.65-34-4.57a23.9,23.9,0,0,0-18.07,5.39c-4.76,3.85-8.74,8.7-13.62,12.38-5.9,4.46-12,9.23-18.72,11.93-11.54,4.6-20.28,11.52-25.83,22.68-1.71,3.44-4.07,6.33-2.07,10.55.41.86-.86,3-1.92,4-3.54,3.13-4.85,6.29-2.36,10.88,2.13,3.92,3.54,8.24,5.17,12.42,2.61,6.75-1.57,12.27-8.76,10.74-5.94-1.25-12.08-3-17.31-6a83.53,83.53,0,0,1-29-26.92c-5.15-7.89-12-14.74-16.72-22.83-3.35-5.69-5.12-12.55-6.47-19.12-1.54-7.43-6.25-12-12-15.61-4.32-2.7-9.37-4.23-14-6.39-3.27-1.51-6-1.27-8.46,1.64-4.15,5-8.83,9.55-12.45,14.86-2.89,4.24-5.93,4.74-9.5,2.07-4.51-3.39-9.13-6.88-12.75-11.14-8-9.37-15.47-19.15-22.9-29a30.71,30.71,0,0,1-4.34-8.93,25.81,25.81,0,0,0-11.3-14.08,25.81,25.81,0,0,1-11-13.18c-.38-1.06-2.34-2.17-3.58-2.18a151,151,0,0,0-15.92.67c-1.11.11-2.7,1.82-3,3-.81,3.9-2.68,4.13-6.42,3.88-11.12-.74-22.29-.65-33.44-.85-4-.08-8.09-.63-12,0-15.65,2.55-27.32-5-38.62-14.22-14.58-11.92-29.63-23.58-47.54-29.77-10.36-3.58-21.85-3.94-32.84-5.71-3.44-.55-6.89-1.08-10.36-1.41-3.71-.36-5.58-2.11-5.86-5.95-.44-5.85.2-12.14-6.38-15.75-.86-.47-.67-3.8-.17-5.58,1.26-4.47-.09-7.94-3.47-10.67-8.11-6.57-16.18-13.2-24.57-19.39a20.32,20.32,0,0,0-9.19-3.42c-10.73-1.35-15.92-11.5-15.09-20.12.41-4.24.34-7.46-3.85-10.13-2-1.28-2.54-4.76-3.87-7.17-1.47-2.65-2.57-5.82-4.75-7.72-6.73-5.89-7.82-9.6-4-17.59-6.8-5.32-5.84-11.2-.86-26.95l3.92.57,6.39-10.67c-1-.45-1.33-.77-1.55-.69-8.61,3.14-8.15,3-11.1-6.1-2.19-6.75-5.9-13-8.7-19.55-.92-2.18-2.21-5.08-1.49-6.94,2.84-7.3.56-14.11-1.31-20.88a16.55,16.55,0,0,1,1.94-14.24c3.4-5.34,6.55-10.82,9.81-16.25,3.61-6,5.47-12.07,3.47-19.39-2.38-8.76,2.45-16,6.62-23.29C30.31,114,37,103.38,42.24,92.15c3.25-7,4.18-15,6.36-22.45.67-2.3,2-4.4,3.4-7.23-3.7-3.07-2.52-8-2.15-13,.74-10.13,1-20.26-3.7-29.85-2.08-4.22,0-10.44,3.83-12.85s6.78.14,10.09,1.81a66.48,66.48,0,0,0,12.68,4.93c3.67,1,6.7,2.17,7.09,6.35.33,3.39,2,7.23-3.3,9-1.34.44-1.88,3.34-3.27,6.06l8-1.85c3.36,4.19-5.1,9.08,1.61,12.71,1-5.5,4.5-10.19,2.89-16.58-.9-3.61,1.36-8,2.1-12,.62-3.38,1.7-6.81,1.5-10.16-.27-4.8.77-6.25,5.68-5,7.41,1.89,14.67,4.38,22.1,6.11,24.93,5.8,49.75,12.24,74.9,16.82,30.1,5.48,60.41,9.93,90.78,13.63,25.24,3.07,50.7,4.46,76.07,6.5,23.22,1.87,46.45,3.62,69.68,5.39,28.23,2.15,56.45,4,84.42-2.64,2.36-.55,4.89-.41,7.63-.61a17.09,17.09,0,0,1,.86-3.16c2-4,5.63-5,8.82-2,4.56,4.26,8.72,9,13.37,13.11,1.43,1.28,3.89,1.5,5.94,2,4.61,1.07,9.57,1.28,13.85,3.11,10.63,4.55,21.2,8.23,33.1,8.17,7.08,0,14.18,2.21,21.26,3.42,0,.52,0,1,0,1.55L581.25,101l.83,1.36c4.06-2.06,8.09-4.19,12.19-6.15,5.82-2.78,7.72-2.29,11,3.07,1.77,2.92,3.86,2.71,6.25,1.18,3.5-2.23,6.81-4.81,10.45-6.77a27.24,27.24,0,0,1,8.41-2.84c3.9-.62,7.63-.15,7.44,4.1,5.58,1.58,10.49,3.61,15.57,4.21a33.51,33.51,0,0,0,13-1.25c7.47-2.18,14.64-5.39,22.07-7.73a8,8,0,0,1,6.31.93c1.2.87,1.06,3.59,1.68,6.18h12.38c-.49,4.69-1,8-6.6,9.68-10.34,3.09-20.25,7.61-30.35,11.51-4.7,1.82-8.69,3.74-10.34,9.54-1.49,5.25-5,9.91-7.55,14.87a4,4,0,0,0,.1,3.63c2.09-3.66,4.11-7.36,6.32-10.94.63-1,1.85-1.65,2.79-2.46.85,1,2.35,2.06,2.42,3.16a97.27,97.27,0,0,1-.18,11.32c-.42,7.58-.9,15.16-1.52,22.73a34.16,34.16,0,0,1-1.4,7.29c-4.39,14.16.25,26.71,6.55,39.2,8.35-11.38,12.94-22.74,6.35-36.8-2.07-4.43-.33-10.69-.21-16.11.19-7.78.5-15.55.75-23.33a5.71,5.71,0,0,1-.06-1c.63-2.77,1.29-5.54,1.94-8.32l7.7,4.16c.11-.54.44-1.83.64-3.15,1.19-7.74,5.63-13.6,11.77-17.77,2.49-1.7,7.18-2.48,9.78-1.29,11.65,5.32,21.59,12.81,22.37,27.05.19,3.4-2.32,7-4,11.64V162.6l1.19.78c2-3.34,3.7-6.89,6-9.95,2.58-3.37,5.35-7,10.42-6.43.9.11,2.29,1.06,2.42,1.81.62,3.51,2.76,5.84,4.73,8.64s1.53,7.43,1.88,11.28a76.13,76.13,0,0,1,.08,8.81,13.22,13.22,0,0,1-.65,4.77c-1.58,3.66-3,7.53-5.36,10.68-3.33,4.46-3.29,8.44.61,13.83,7.38-2.33,16.79-2.85,22.64-7.68,10-8.28,24.35-10.4,31.38-22.6,2.2-3.82,4.87-7.37,7.57-11.42a43.83,43.83,0,0,1-4.2-2.06c-1.24-.82-3.42-2-3.3-2.77.26-1.5,1.6-2.95,2.78-4.15,5.18-5.28,12-5.33,18.6-5.08s12.19-1.7,16.75-7c2.65-3.07,6.42-5.17,9.9-7.88-.31-1.74-.69-3.82-1.07-6-5.34-1.6-5.17-1.76-2.52-6.71,3.88-7.25,7.36-14.72,10.92-22.13,2.93-6.09,7.93-9.12,14.35-10.42,10.75-2.18,21.52-4.34,32.18-6.93,2.7-.66,5.21-2.65,7.45-4.48,4.34-3.53,8.18-7.7,12.69-11a8.86,8.86,0,0,0,4.19-7.2C929,47.17,930.59,33,932.48,18.8c.86-6.43,2.58-7.21,8.84-7a22.17,22.17,0,0,0,7.82-1C956,8.59,962.72,10.59,965.9,17c4,8.17,7.64,16.56,11,25,1.44,3.63,3,6,7.3,6.11a22.93,22.93,0,0,1,7.22,1.72c1,.37,2.37,2,2.17,2.68-1.29,4.12,1.23,6.6,3.46,9.27,4,4.71,3.84,5.3-.89,9.06-1,.8-1.47,2.22-2.37,3.17-2.45,2.6-3.94,5.6-8.38,6.75s-8.69,4.92-11.36,9.55c-1.82,3.17-4.18,6-6.27,9-.92,1.32-1.69,2.74-2.65,4-.78,1-1.62,2.58-2.65,2.77-3.2.62-4.75,2.53-5.62,5.41-1.45,4.76-2.86,9.52-4.48,14.22a55.28,55.28,0,0,1-2.65,5.82c3.06,5.71,5.88,10.93,8.91,16.57a76.69,76.69,0,0,0,8.38-2.28,3.54,3.54,0,0,0,1.65-3c-.17-1-1.39-2.09-2.41-2.74-2.55-1.64-5.24-3.06-8-4.65,3.36-4,10.2-6.42,13.58-5.23,4.88,1.72,7.13,5.77,8.2,10.38a25.58,25.58,0,0,1,.29,8.38,8.13,8.13,0,0,1-2.2,4.83c-4.23,3.86-8.25,8.57-13.3,10.76-7.13,3.09-11.16,8.52-15.63,14.17-3.8,4.8-9.78,5.29-15.53,5.36-9.8.11-14.48,3.77-17.47,14.73,3.51-2.11,6.51-3.7,9.26-5.62,6-4.22,12.51-4.84,19.38-2.7,4,1.25,4.36,3.06,1.31,5.9-6.84,6.38-15,10.22-24,12.39-1,.23-2,.42-2.9.73-.45.15-.8.55.22,1.1-.43,3.67-.78,7.35-1.31,11-1,7.06-2.3,14.09-3.14,21.17-.33,2.8-1.36,4-4.07,3.53-3.71-.63-7.41-1.37-12.66-2.35,1.29,4.36,2.66,8.22,3.53,12.19.66,3.07,1.69,6.62.75,9.32-1.2,3.45-2.3,6.34-.5,9.8,4,7.63,2,14.49-4.09,21.76,2.89.56,4.87,1.11,6.9,1.29a30.21,30.21,0,0,0,4.83-.26l.35,5.83c1.2-.19,3-.36,4.79-.76,4.57-1,5.56.3,5.37,4.91-.28,6.44-4.08,9.22-9.33,11.46-1.55.66-3,2.74-3.5,4.46-1.29,4.1-1.82,8.44-3.09,12.55-.52,1.67-2.18,3-3.32,4.46-1.08-1.44-2.2-2.86-3.24-4.33a17.87,17.87,0,0,1-1.11-2.44c-4.67,8.29-8.58,16.34-13.49,23.74-10.74,16.21-22,32.09-33,48.07a5,5,0,0,1-2.64,2.15c-7.5,1.24-10.1,7.39-13.36,12.93-7.06,11.95-12.05,24.41-9.71,38.7.38,2.29.48,4.77,1.49,6.77,6.49,12.89,12.84,25.87,19.92,38.44,12.06,21.41,23.58,43,26.33,67.9.75,6.79-.79,13.85-1.57,20.75-.17,1.49-1.27,3.68-2.46,4.12a158.36,158.36,0,0,1-16.82,5c-.77.19-3-1.83-3-2.8.11-7.06-2.91-13.3-6.21-18.9-2.74-4.67-7.73-8.15-12.14-11.65-2.61-2.07-6.58-2.58-8.94-4.84-4.21-4-7.66-8.87-11.43-13.37-1-1.16-2-2.29-2.91-3.47-1.52-1.94-3.9-3.72-4.34-5.89-1.09-5.51-2.17-11.27-1.68-16.8.7-8-2.4-13.41-8.06-18.44-2.71-2.4-4.51-5.93-6.39-9.14-2.77-4.75-5.73-9-12.05-8.83-.49,0-1.08-.25-1.46-.06-5.79,3-11.71,5.73-17.27,9.09-2.83,1.72-5.48,3.12-8.18.87-14-11.65-29.89-9.81-46.11-7.12-9.41,1.56-7.94,3.43-11.52-6.85-.45-1.29-.88-2.59-1.31-3.89ZM880.19,273.66a70.49,70.49,0,0,1-5.13-6.08c-3.21-4.42-2.85-14.61.62-18.14.46.44,1.13.79,1.38,1.33,2.66,5.76,5.21,11.57,7.91,17.32.45,1,1.59,2.4,2.22,2.31,5.44-.78,5.55,3.5,6.77,6.77,1.29,3.49,2.61,7,3.92,10.46l1.42-.5c-.21-1.78.12-3.9-.74-5.27-3.53-5.64-2.73-11.22-1-17.16.61-2.08-.22-4.72-.84-7-1.15-4.13-3.06-8.09-3.86-12.27-1-5.34,1.79-7.5,6.81-6,3.43,1,6.94,1.78,9.3,2.37,1.55-5.71,3.38-11.07,4.38-16.57.77-4.25,2-9.41.36-12.89-3-6.19-1.27-12.2-.46-17.72,1.29-8.71,11.36-15.13,20.48-14.61,6.56.38,11.79-1.75,15.47-7,3.28-4.65,5.62-10.09,12.26-10.91.54-.07,1-.79,1.49-1.25,2.88-2.74,5.5-5.83,8.69-8.14,3.43-2.49,3.91-6,4.18-9.51a7.12,7.12,0,0,0-9.85-7.06l7.61,8-.73,2.29c-4.85,1.12-9.66,2.47-14.57,3.17-1.12.15-3.06-1.73-3.76-3.11-2.12-4.14-2.38-9.25-7-12.05-.82-.49-1.09-2.84-.78-4.12,1.56-6.39,3.38-12.72,5.16-19,1-3.68,3.57-5.66,7.18-7,1.82-.65,3.23-2.7,4.58-4.32.69-.83.67-2.23,1.28-3.17,2.8-4.27,5.71-8.48,8.57-12.71,6.65-5.83,16.26-7.81,21.72-15.88-2.57-4-5.65-7.69-7.33-11.92-1.09-2.74-2.28-3.57-4.83-3.8-5.55-.5-9-3.74-11.1-8.76-3.08-7.51-6.09-15.06-9.34-22.5-3.13-7.14-5.07-7.83-12.32-5.15a10,10,0,0,1-3.86.83c-5.78-.4-9.35-.2-9.54,8-.29,12-3.74,23.83-4.49,35.82-.43,6.86-3.27,10.63-8.7,13.72-2.38,1.35-5.25,3.11-6.24,5.41-2.3,5.32-6.49,7.65-11.5,8.15-11.49,1.14-22.3,4.87-33.4,7.57-6.66,1.61-10.93,4.87-13.79,10.87-3.24,6.8-6.88,13.41-9.86,19.18.94,2.1,1.71,3.81,2.47,5.53.5,1.12.67,2.7,1.52,3.28,4.14,2.84,2.15,4.83-.71,6.77-2.6,1.78-5.91,3-7.79,5.31-6.3,7.87-14.64,9.66-24,9.54-3.35,0-6.7.82-10.58,1.34,4.55,5.72,4.73,9.59.77,15.06-5.9,8.16-12.88,15.21-21.94,19.95-3.81,2-8.38,3.25-11.24,6.18-4.77,4.88-9.94,8.3-16.65,9-4.85.51-9.75.49-14.62.71-4.47.2-7.94-3.25-7.13-7.67a16.94,16.94,0,0,1,3-7.2c7-8.95,5.09-19.86,6.85-29.94.17-1-.36-2.79-1.09-3.16-4.33-2.16-5.72-5.77-4.77-10.66-6.21,2.73-9.28,7-11.93,12-.94,1.79-4.19,2.37-6.39,3.49-.42-2-.9-4-1.22-6-.28-1.72.25-4.41-.68-5-3-2.06-1.65-3.81-.4-5.83.86-1.4,2.14-2.71,2.47-4.22,1.2-5.61-4.17-16.89-9.26-20.07-2.39-1.5-5-2.76-7.05-4.65-3.68-3.4-7-2.43-10.23.29-5.52,4.68-9.13,10.45-9.22,18-.06,5-1.51,8.87-6.91,8.5-.55,5.24-.93,10.1-1.59,14.92-1,7.2-2.42,14,1,21.43,3,6.58,4.66,14.45,1.22,21.78a122.78,122.78,0,0,1-8.64,15.05c-1.23,1.88-3.9,4.43-5.4,4.13-2-.41-4-3-5.15-5.16-2-3.79-3.22-8-5-11.9a34.06,34.06,0,0,1-3.12-18.68q1.6-14.06,3.37-28.09c.88-7.09,1.82-14.17,2.68-20.84-4.65,2-2.5,11.67-12.07,10.33,1.37-4.45,2.25-8.44,3.81-12.14,2.27-5.37,5-10.54,7.59-15.79.06-.13.26-.2.41-.27,6.69-3.24,13.25-6.78,20.1-9.62,6.48-2.67,13.27-4.59,19.89-6.93.38-.13.46-1.07.83-2l-13.85-1.69c.75-2.08,1.21-3.36,1.68-4.64l-.84-1.44c-6.9,2.54-13.83,5-20.71,7.63s-13.38,4.11-20.58.1c-3-1.66-7.48-.36-11.22-.89-1.47-.21-3-1.56-4-2.76-.62-.7-.42-2.13-.68-3.8-7.37,1.37-12.64,5.39-17.44,10.31a8,8,0,0,1-3.39,2c-6,1.71-9.79-.94-11.61-7-4.49,2.06-8.25,4.38-12.33,5.48s-8.27.87-12.33,1.22c-1.16-4.35-.72-6.57,2.74-8.31,2.71-1.36,4.73-4.06,7.1-6.11,3.35-2.88,6.74-5.71,10.13-8.55,3.79-3.17,7.61-6.32,12.46-10.35-5.24-.57-8.88-1.47-12.45-1.26-11,.64-20.81-2.8-30.67-7.06-5-2.18-10.82-2.65-16.16-4.23-3.24-1-6.88-1.93-9.29-4.08-4-3.58-7.18-8.12-11.46-13.14l-4.51,9.18c-4.91.3-9,.36-13,.82-10.87,1.25-21.74,4-32.56,3.76-25.23-.48-50.46-2-75.64-3.74-36.53-2.56-73.08-5.06-109.5-8.87C262,41.69,232.22,37,202.48,32.36c-11.45-1.77-22.62-5.27-33.95-7.81-18.3-4.1-36.66-7.94-54.94-12.14-6.91-1.58-13.67-3.84-19.92-5.63-6.8,12.11-4,25.5-7.7,37.72-1.3,4.28-.9,9-1.6,13.55-.11.72-1.85,1.2-2.84,1.79A10.92,10.92,0,0,1,80.8,57c.08-2.94.35-5.88.54-8.72L71,53.65l-1.3-1.71,9.87-15.41H68.05c3.4-4.29,6.21-7.34,8.35-10.81.85-1.38.63-3.85,0-5.53-.38-1.1-2.17-2-3.52-2.42-5.3-1.59-10.65-3-16-4.35a61.42,61.42,0,0,0-6.39-.91c.19,2.22-.29,4.8.69,6.58,6.07,10.94,3.61,22.55,2.1,33.7-.74,5.53.77,8.16,4.33,11.28a49.4,49.4,0,0,1,7.48,8.52c.76,1,.21,3,.26,4.61-1.52-.07-3.2.26-4.5-.29A64.23,64.23,0,0,1,54,73c-.54.65-1,1-1.12,1.39a14.44,14.44,0,0,0-.78,2.88,77.37,77.37,0,0,1-12.64,33.29,210.48,210.48,0,0,0-11.21,18.22c-4,7.59-8.45,15.27-5.1,24.56a7,7,0,0,1-.64,4.8c-4,8.38-7.5,17.1-12.48,24.87-4,6.24-4.93,11.9-2.56,18.69,1.85,5.28,3.52,10.55,1,16.43-.86,2,.49,5.45,1.64,7.84,3.86,8,9.36,15.36,7.62,25.24,1.39-.22,2.36-.41,3.32-.53,2.47-.31,4.94-.59,7.41-.89-.8,2.58-1.6,5.15-2.41,7.73a1,1,0,0,1-.27.41c-2.52,2.15-2.31,4.25-.53,6.94,1.31,2,3.11,4.61-.51,7.23l-5.06-5.93-1.45,0c-.48,5.4-.95,10.8-1.42,16.05,5.24,1.36,6.8,4.73,5.17,9.5-2.3,6.76-1.61,8.18,3.41,13.12,2.2,2.16,3.15,5.56,4.79,8.32,1.47,2.47,2.6,5.67,4.81,7,3.32,2.05,3.9,4.14,3.47,7.74-1.55,12.84,2.77,18.34,15.37,21.09,3.48.76,7.34,1.92,9.95,4.15,8.19,7,15.95,14.55,23.68,22.08,1.31,1.27,2.6,3.7,2.3,5.29-1.22,6.45,2.45,11.18,4.79,16.46a16.85,16.85,0,0,1,1.32,7.26c-.15,3.28,1.28,4.48,4.2,4.8,12.4,1.33,24.86,2.33,37.18,4.23,5.56.86,11.54,2.49,16.13,5.55,16.75,11.16,33.11,22.93,49.35,34.82,4.2,3.07,8.51,4.1,13.41,4.28,16.09.57,32.17,1.25,48.26,1.83,3.45.13,6.91,0,10.5,0,.52-2.19,1-4.25,1.76-7.28h27.9c.29.39,2.08,1.78,2.45,3.49,1.19,5.41,4.52,8.83,8.7,12.16,4.48,3.58,9.9,7.41,11.9,12.35,3.77,9.33,9.33,17.22,15.3,25,7.25,9.43,14.3,19.1,24.71,25.55,4.71-5.74,9.06-11.41,13.86-16.66C383,512.76,386,511,388,511.34c5.68.89,11.57,2,16.72,4.48,12.82,6.06,23,14.53,23.83,30.4a20.8,20.8,0,0,0,3.8,10C437,563,442.93,569,447.14,576.09c10.33,17.35,25.15,28,44.76,32.08a19.33,19.33,0,0,0,4,0c-3.59-8.5-6.93-16.42-10.29-24.4,3.28-4.73,7.61-8.95,6.68-15.56-.18-1.25.94-2.81,1.75-4,3.09-4.71,6.22-9.4,9.51-14a11,11,0,0,1,3.77-3.12c6.08-3.19,12.61-5.68,18.3-9.44,7.4-4.89,14.17-10.72,21.18-16.19,4.49-3.51,8.28-7.65,13.89-10,9.65-4,18.82-1.88,28.32-.19,8.21,1.46,16.56,2.2,25.26,3.31-.48-2.12-.83-3.64-1.19-5.2,9-.79,12.43,1.46,14.71,9.84,5.65-2.23,11.4-3.28,17.45,1.41-1.1-4.4-.29-6.11,3.46-7.54,4.8-1.82,8.37-.8,12.07,1.8,2.74,1.92,5.4,4,8.09,5.94-1.74-3.37-5.3-6-5.9-9.17s1.84-6.77,3.47-11.8c-4.32,6.22-8.81,6.36-14.09,4.2,1.78-5.77,4.72-10,10.49-11.8,2.36-.75,4.59-1.89,6.88-2.88,3.33-1.44,6.71-2.8,10-4.4a6.64,6.64,0,0,0,3-2.62c1.18-2.37,1.45-6.68,3-7.11,4.23-1.21,4.71,3.6,6.65,6.06a3.39,3.39,0,0,1,.53.84c2.1,5.09,6.52,5.14,10.82,4.55,6-.81,11.85-2.89,17.8-3.08,7.88-.26,15.83-.09,22.42,6,3.4,3.17,7.71,5.3,12.92,1.61,4-2.87,8.91-4.6,13.52-6.61,4.8-2.09,17.79,4.57,19.85,10.53,2.21,6.39,6.33,11.1,11.42,15.16a9,9,0,0,1,3.72,8.06,171.5,171.5,0,0,0,.92,20.38c.13,1.47,2.19,4,3.1,3.94,3.28-.38,3.19,1.77,4.08,3.72,2.16,4.71,4.66,9.27,7.38,14.57,3.27-3.74,4.85-3.14,6.72-.35,1.42,2.13,3.85,3.58,5.8,5.37,4.11,3.78,9.33,6.93,12,11.55,3.18,5.52,4.18,12.31,6.11,18.55.37,1.2.72,2.4,1.13,3.79,7.22-2.24,13.75-4.25,14.72-13.16,2.39-21.88-5-41.33-14.67-60.15-8.4-16.43-17.58-32.45-26-48.88a71.11,71.11,0,0,1-6.8-19c-1-5.56.09-11.54.44-17.32a12.71,12.71,0,0,1,1.37-4.23c2.92-6.46,5.76-13,8.93-19.31,2.52-5,5-10.06,10.7-12.69a21.36,21.36,0,0,0,8-6.2c8.87-12,17.62-24.17,25.88-36.62a235.29,235.29,0,0,0,15-25.88c3.17-6.4,4.75-8.37,11.37-8.45,2.08-8.7,2.13-8.62,10.59-14.1,1.21-.79,1.72-2.68,3.06-4.89-2.91,0-4.7.41-6.17-.09-2.6-.9-7-2.08-7.16-3.62-1.08-7.68-8-9.11-12.39-13.2m25.91-85.62c8,0,20.18-5.46,25.52-11.35C935.54,191.64,917.37,199.72,915.37,206.57Zm-32.1,65.55c1.42,2,2,3.55,2.92,3.91,3.53,1.29,3.35,3.78,3,6.74-.84,6.29.3,7.85,6.93,10.29C895.69,283,890.76,274.1,883.27,272.12Zm-.65-4.13c-2.71-4.72-5-8.69-7.35-12.77C874.4,263.11,875.74,265.78,882.62,268Z"/></g></g></svg>